<svg width="264" height="62" viewBox="0 0 264 62" fill="none" xmlns="http://www.w3.org/2000/svg">
<g clip-path="url(#clip0_1_892)">
<path d="M41.9472 16.4088C39.1749 5.4076 30.8846 1.01907 27.0859 0.199299C35.9894 -0.172723 40.7037 2.52443 41.9472 3.91951V16.4088Z" fill="white"/>
<path d="M41.9472 16.4088C39.1749 5.4076 30.8846 1.01907 27.0859 0.199299C35.9894 -0.172723 40.7037 2.52443 41.9472 3.91951V16.4088Z" fill="white"/>
<path d="M46.8118 30.0939H27.8187C31.604 30.6253 32.6836 34.3017 32.7503 36.0728V43.181C32.3771 47.539 28.6851 48.7614 26.8857 48.8278C34.403 49.1998 40.4595 46.7684 42.5467 45.5062V38.3979C42.6 32.0204 45.4123 30.2041 46.8118 30.0939Z" fill="white"/>
<path d="M46.8118 30.0939H27.8187C31.604 30.6253 32.6836 34.3017 32.7503 36.0728V43.181C32.3771 47.539 28.6851 48.7614 26.8857 48.8278C34.403 49.1998 40.4595 46.7684 42.5467 45.5062V38.3979C42.6 32.0204 45.4123 30.2041 46.8118 30.0939Z" fill="white"/>
<path d="M14.9575 15.213C14.7443 4.53068 19.8891 0.973896 22.4881 0.531456C13.1049 0.903477 5.96079 8.2602 3.56166 11.8914C-2.88933 20.9793 0.874639 32.6409 3.56166 37.335C8.6798 46.5292 18.3123 48.7839 22.4881 48.7614C16.4103 47.8579 14.9362 38.5972 14.9575 34.0798V15.213Z" fill="white"/>
<path d="M14.9575 15.213C14.7443 4.53068 19.8891 0.973896 22.4881 0.531456C13.1049 0.903477 5.96079 8.2602 3.56166 11.8914C-2.88933 20.9793 0.874639 32.6409 3.56166 37.335C8.6798 46.5292 18.3123 48.7839 22.4881 48.7614C16.4103 47.8579 14.9362 38.5972 14.9575 34.0798V15.213Z" fill="white"/>
<path d="M111.36 0H95.832V47.4327H111.36C109.014 46.3698 108.028 43.1372 107.828 41.6531V8.83551C107.561 3.89294 110.071 0.886208 111.36 0Z" fill="white"/>
<path d="M111.36 0H95.832V47.4327H111.36C109.014 46.3698 108.028 43.1372 107.828 41.6531V8.83551C107.561 3.89294 110.071 0.886208 111.36 0Z" fill="white"/>
<path d="M66.9754 0H49.1152C52.8472 0.850334 55.7355 4.87215 56.7125 6.7761L77.9048 48.8942L84.1025 33.5483L66.9754 0Z" fill="white"/>
<path d="M66.9754 0H49.1152C52.8472 0.850334 55.7355 4.87215 56.7125 6.7761L77.9048 48.8942L84.1025 33.5483L66.9754 0Z" fill="white"/>
<path d="M65.7765 47.3663H46.7168C53.9675 46.8348 56.3573 35.7632 56.7132 30.2267C56.9264 42.9286 62.8883 46.9012 65.7765 47.3663Z" fill="white"/>
<path d="M65.7765 47.3663H46.7168C53.9675 46.8348 56.3573 35.7632 56.7132 30.2267C56.9264 42.9286 62.8883 46.9012 65.7765 47.3663Z" fill="white"/>
<path d="M145.643 23.0959C147.104 24.4536 148.247 26.1164 148.989 27.9654C149.771 29.9175 150.163 32.003 150.144 34.1051C150.156 36.2258 149.764 38.3296 148.989 40.3045C148.271 42.1849 147.138 43.8798 145.672 45.263C144.063 46.7696 142.157 47.9257 140.074 48.6577C137.923 49.4452 135.456 49.8389 132.672 49.8389C130.264 49.8389 128.042 49.4943 126.008 48.8052C124.033 48.1378 122.212 47.084 120.651 45.7055C119.128 44.3559 117.916 42.6944 117.097 40.8347C116.228 38.886 115.794 36.7114 115.794 34.311C115.794 31.9504 116.169 29.8547 116.92 28.0238C117.702 26.1569 118.873 24.477 120.356 23.0959C121.817 21.7176 123.613 20.6547 125.745 19.9071C127.898 19.1401 130.297 18.7565 132.942 18.7565C135.706 18.7565 138.134 19.1401 140.226 19.9071C142.338 20.6556 144.143 21.7185 145.643 23.0959ZM138.062 43.557C138.496 42.4543 138.812 41.1159 139.009 39.5419C139.242 37.7213 139.351 35.8871 139.336 34.0519C139.324 32.4733 139.225 30.8965 139.04 29.3286C138.842 27.557 138.546 26.1602 138.151 25.138C137.678 23.8979 137.016 22.9236 136.168 22.215C135.337 21.5064 134.281 21.1521 132.998 21.1521C131.598 21.1521 130.473 21.536 129.624 22.304C128.795 23.0702 128.153 24.064 127.699 25.2855C127.25 26.5599 126.961 27.885 126.839 29.2302C126.678 30.7893 126.599 32.3557 126.602 33.923C126.602 36.0683 126.671 37.8492 126.81 39.2655C126.96 40.7123 127.3 42.1332 127.82 43.4919C128.275 44.7134 128.927 45.678 129.776 46.3857C130.624 47.0935 131.7 47.4478 133.002 47.4487C134.187 47.4487 135.204 47.124 136.053 46.4748C136.899 45.806 137.569 44.8317 138.062 43.5517V43.557ZM193.051 48.8942H175.226V46.7392C175.6 46.7006 176.055 46.6515 176.587 46.5917C177.005 46.5625 177.416 46.4628 177.801 46.2967C178.2 46.0968 178.515 45.762 178.69 45.3521C178.867 44.9393 178.956 44.3294 178.956 43.5225V29.7046C178.956 27.6974 178.581 26.1916 177.831 25.1872C177.101 24.1641 176.015 23.6526 174.574 23.6526C173.819 23.6472 173.068 23.7667 172.352 24.006C171.647 24.2601 170.98 24.6078 170.369 25.0397C169.854 25.3816 169.387 25.7885 168.977 26.2501C168.641 26.6637 168.355 27.0278 168.118 27.3422V43.193C168.101 43.7874 168.202 44.3793 168.415 44.9349C168.608 45.3835 168.954 45.7497 169.392 45.9685C169.767 46.1691 170.164 46.3273 170.575 46.4402C171.031 46.5745 171.497 46.6731 171.968 46.7352V48.8942H153.964V46.7392C154.457 46.7011 154.951 46.6519 155.445 46.5917C155.886 46.5298 156.322 46.4311 156.747 46.2967C157.379 46.0806 157.813 45.7462 158.051 45.2936C158.288 44.841 158.406 44.2506 158.405 43.5225V26.3418C158.4 25.7118 158.237 25.093 157.932 24.5414C157.633 23.9714 157.208 23.477 156.688 23.0959C156.267 22.8306 155.808 22.6312 155.326 22.5046C154.746 22.3387 154.151 22.2301 153.55 22.1804V20.0254L167.678 19.2574L168.122 19.7012V23.9808H168.24C168.794 23.4892 169.465 22.8988 170.254 22.2097C170.944 21.5983 171.676 21.0362 172.445 20.5276C173.176 20.0546 174.133 19.6511 175.318 19.3172C176.552 18.9758 177.827 18.8068 179.108 18.815C182.326 18.815 184.734 19.73 186.334 21.56C187.952 23.3705 188.761 25.7811 188.762 28.7918V43.2568C188.762 43.9849 188.87 44.5651 189.087 44.9973C189.304 45.4296 189.709 45.7741 190.302 46.031C190.678 46.1905 191.063 46.3285 191.456 46.4442C191.979 46.5914 192.514 46.6902 193.055 46.7392L193.051 48.8942ZM227.667 41.8391C226.951 42.993 226.107 44.0627 225.15 45.0279C224.168 46.0227 223.052 46.8767 221.834 47.5656C220.566 48.2903 219.213 48.8557 217.806 49.249C216.464 49.6423 214.914 49.8389 213.157 49.8389C210.236 49.8389 207.709 49.4257 205.577 48.5993C203.464 47.7728 201.717 46.6608 200.335 45.263C198.953 43.8643 197.892 42.1822 197.227 40.3338C196.541 38.3396 196.2 36.2437 196.219 34.1356C196.212 32.1645 196.584 30.2103 197.315 28.3786C198.051 26.5515 199.125 24.8791 200.483 23.4493C201.827 22.0524 203.515 20.9209 205.548 20.0546C207.601 19.1901 209.89 18.7574 212.417 18.7565C215.181 18.7565 217.451 19.0909 219.228 19.7596C221.005 20.4284 222.476 21.3531 223.64 22.5339C224.762 23.6513 225.604 25.017 226.098 26.5198C226.616 28.0614 226.876 29.6773 226.868 31.3029V33.2162H206.85C206.85 37.25 207.63 40.32 209.189 42.4264C210.749 44.5327 213.227 45.5854 216.623 45.5846C218.406 45.606 220.153 45.0805 221.626 44.0792C223.123 43.0395 224.409 41.7273 225.417 40.2115L227.667 41.8391ZM216.356 30.6227C216.356 29.4411 216.297 28.2307 216.177 26.9915C216.058 25.7523 215.851 24.739 215.556 23.9515C215.22 23.0268 214.757 22.3279 214.165 21.8549C213.592 21.3828 212.861 21.1468 211.974 21.1468C210.452 21.1468 209.238 21.9143 208.331 23.4493C207.424 24.9843 206.93 27.4149 206.85 30.7409L216.356 30.6227ZM264 21.7672C263.072 21.9197 262.185 22.2612 261.394 22.7704C260.565 23.3018 259.874 24.1282 259.322 25.2496C257.624 28.8316 255.877 32.6497 254.081 36.7039C252.284 40.7377 250.29 45.1063 248.099 49.8097C246.876 52.4457 245.691 54.5512 244.546 56.1261C243.4 57.7009 242.324 58.9113 241.318 59.7573C240.481 60.4776 239.531 61.0558 238.505 61.4685C237.608 61.8173 236.654 61.9974 235.692 62C233.816 62 232.296 61.4787 231.132 60.4362C229.988 59.3928 229.415 58.2218 229.414 56.9232C229.41 56.4063 229.47 55.8909 229.593 55.3887C229.768 54.8468 230.05 54.3451 230.422 53.9125C230.738 53.4794 231.221 53.1056 231.872 52.7911C232.583 52.4872 233.35 52.336 234.123 52.3474C235.227 52.3474 236.283 52.7314 237.291 53.4993C238.299 54.2673 239.345 55.3302 240.43 56.6881C241.081 56.0397 241.881 55.0653 242.829 53.765C243.751 52.5709 244.471 51.2349 244.962 49.8097C242.613 44.8901 240.53 40.6296 238.713 37.0281C236.898 33.408 234.865 29.3737 232.614 24.9254C232.165 24.0303 231.479 23.2749 230.63 22.7411C229.836 22.223 228.935 21.89 227.994 21.7672V19.6122H246.121V21.7672C245.325 21.81 244.538 21.9588 243.781 22.2097C242.913 22.4843 242.479 22.8386 242.479 23.2726C242.482 23.4531 242.512 23.6322 242.568 23.804C242.626 23.9812 242.735 24.2469 242.893 24.6012C243.563 25.9777 244.511 27.8963 245.736 30.3569C246.98 32.7963 248.421 35.6596 250.058 38.9466C251.284 36.1529 252.32 33.7521 253.168 31.744C254.033 29.7139 254.871 27.7244 255.68 25.7758C255.843 25.4097 255.953 25.0222 256.006 24.6252C256.036 24.4297 256.056 24.2328 256.064 24.0352C256.064 23.6809 255.887 23.3758 255.531 23.1198C255.164 22.8251 254.755 22.5865 254.318 22.4116C253.857 22.2242 253.382 22.0758 252.896 21.9679C252.443 21.8695 252.067 21.8004 251.771 21.7619V19.6122H264V21.7672Z" fill="white"/>
</g>
<defs>
<clipPath id="clip0_1_892">
<rect width="264" height="62" fill="white"/>
</clipPath>
</defs>
</svg>
