<svg width="390" height="536" viewBox="0 0 390 536" fill="none" xmlns="http://www.w3.org/2000/svg">
<g opacity="0.3">
<g clip-path="url(#clip0_1_910)">
<path d="M421.66 513.303L325.162 609.892C322.405 609.445 319.69 608.865 317.03 608.159L419.922 505.156C420.634 507.825 421.213 510.536 421.66 513.303Z" stroke="#CBCBCB" stroke-width="1.0782" stroke-miterlimit="10"/>
<path d="M419.922 505.156L317.03 608.152C314.482 607.475 311.977 606.685 309.534 605.777L417.556 497.652C418.456 500.105 419.245 502.606 419.922 505.156Z" stroke="#CBCBCB" stroke-width="1.0782" stroke-miterlimit="10"/>
<path d="M403.017 472.687L284.594 591.23C282.815 589.727 281.083 588.162 279.436 586.513L398.305 467.524C399.945 469.173 401.516 470.906 403.017 472.687Z" stroke="#CBCBCB" stroke-width="1.0782" stroke-miterlimit="10"/>
<path d="M407.309 478.263L290.164 595.534C288.245 594.171 286.388 592.746 284.594 591.23L403.016 472.688C404.524 474.483 405.955 476.349 407.309 478.263Z" stroke="#CBCBCB" stroke-width="1.0782" stroke-miterlimit="10"/>
<path d="M414.624 490.707L302.596 602.849C300.39 601.801 298.247 600.648 296.16 599.411L411.19 484.265C412.418 486.354 413.57 488.499 414.624 490.707Z" stroke="#CBCBCB" stroke-width="1.0782" stroke-miterlimit="10"/>
<path d="M411.19 484.265L296.153 599.411C294.094 598.203 292.105 596.903 290.164 595.527L407.309 478.263C408.684 480.205 409.982 482.204 411.19 484.265Z" stroke="#CBCBCB" stroke-width="1.0782" stroke-miterlimit="10"/>
<path d="M417.556 497.652L309.534 605.784C307.167 604.91 304.857 603.925 302.596 602.849L414.624 490.707C415.699 492.971 416.676 495.284 417.556 497.652Z" stroke="#CBCBCB" stroke-width="1.0782" stroke-miterlimit="10"/>
<path d="M422.623 522.212L334.068 610.856C331.053 610.696 328.086 610.36 325.169 609.892L421.66 513.303C422.127 516.224 422.463 519.193 422.623 522.212Z" stroke="#CBCBCB" stroke-width="1.0782" stroke-miterlimit="10"/>
<path d="M422.756 526.844C422.756 528.626 422.679 530.387 422.574 532.14L343.987 610.807C342.235 610.919 340.476 610.989 338.696 610.989C337.147 610.989 335.604 610.94 334.068 610.856L422.623 522.212C422.707 523.749 422.756 525.286 422.756 526.844Z" stroke="#CBCBCB" stroke-width="1.0782" stroke-miterlimit="10"/>
<path d="M421.101 543.494L355.329 609.34C351.63 610.081 347.847 610.57 343.994 610.814L422.574 532.14C422.33 536.004 421.848 539.791 421.101 543.494Z" stroke="#CBCBCB" stroke-width="1.0782" stroke-miterlimit="10"/>
<path d="M352.824 443.901L255.837 540.986C255.348 538.079 254.999 535.131 254.811 532.133L343.973 442.881C346.968 443.062 349.92 443.412 352.824 443.901Z" stroke="#CBCBCB" stroke-width="1.0782" stroke-miterlimit="10"/>
<path d="M338.696 442.699C340.469 442.699 342.228 442.776 343.98 442.881L254.811 532.133C254.699 530.386 254.629 528.626 254.629 526.844C254.629 525.321 254.671 523.812 254.755 522.309L334.159 442.825C335.667 442.741 337.175 442.699 338.696 442.699Z" stroke="#CBCBCB" stroke-width="1.0782" stroke-miterlimit="10"/>
<path d="M334.166 442.825L254.755 522.309C254.957 518.481 255.432 514.729 256.13 511.053L322.921 444.194C326.593 443.503 330.341 443.027 334.166 442.825Z" stroke="#CBCBCB" stroke-width="1.0782" stroke-miterlimit="10"/>
<path d="M322.921 444.194L256.13 511.053C257.023 506.33 258.308 501.754 259.955 497.345L309.227 448.023C313.631 446.374 318.203 445.096 322.921 444.194Z" stroke="#CBCBCB" stroke-width="1.0782" stroke-miterlimit="10"/>
<path d="M309.227 448.023L259.955 497.345C268.464 474.609 286.507 456.54 309.227 448.023Z" stroke="#CBCBCB" stroke-width="1.0782" stroke-miterlimit="10"/>
<path d="M360.906 445.69L257.617 549.077C256.891 546.429 256.297 543.732 255.837 540.986L352.823 443.901C355.567 444.369 358.261 444.963 360.906 445.69Z" stroke="#CBCBCB" stroke-width="1.0782" stroke-miterlimit="10"/>
<path d="M387.633 458.448L270.369 575.83C268.987 573.902 267.675 571.917 266.454 569.87L381.679 454.528C383.724 455.751 385.706 457.064 387.633 458.448Z" stroke="#CBCBCB" stroke-width="1.0782" stroke-miterlimit="10"/>
<path d="M393.175 462.787L274.697 581.378C273.175 579.596 271.73 577.745 270.362 575.837L387.626 458.455C389.538 459.817 391.388 461.264 393.175 462.787Z" stroke="#CBCBCB" stroke-width="1.0782" stroke-miterlimit="10"/>
<path d="M368.361 448.107L260.032 556.546C259.11 554.107 258.308 551.62 257.617 549.084L360.906 445.69C363.44 446.381 365.932 447.185 368.361 448.107Z" stroke="#CBCBCB" stroke-width="1.0782" stroke-miterlimit="10"/>
<path d="M398.305 467.524L279.436 586.52C277.782 584.879 276.212 583.153 274.704 581.378L393.175 462.787C394.948 464.296 396.665 465.868 398.305 467.524Z" stroke="#CBCBCB" stroke-width="1.0782" stroke-miterlimit="10"/>
<path d="M375.271 451.063L262.991 563.463C261.902 561.213 260.925 558.901 260.032 556.546L368.361 448.107C370.713 448.995 373.023 449.973 375.271 451.063Z" stroke="#CBCBCB" stroke-width="1.0782" stroke-miterlimit="10"/>
<path d="M381.679 454.528L266.453 569.87C265.211 567.788 264.052 565.65 262.991 563.456L375.271 451.063C377.463 452.125 379.599 453.292 381.679 454.528Z" stroke="#CBCBCB" stroke-width="1.0782" stroke-miterlimit="10"/>
<path d="M278.41 514.233L282.64 518.474L276.47 524.65L282.64 530.827L278.41 535.068L272.24 528.884L266.063 535.068L261.833 530.827L268.003 524.65L261.833 518.474L266.063 514.233L272.24 520.416L278.41 514.233Z" fill="#6C5495"/>
<path d="M239.839 514.233L244.076 518.474L237.898 524.65L244.076 530.827L239.839 535.068L233.669 528.884L227.498 535.068L223.261 530.827L229.439 524.65L223.261 518.474L227.498 514.233L233.669 520.416L239.839 514.233Z" fill="#6C5495"/>
<path d="M201.275 514.233L205.504 518.474L199.334 524.65L205.504 530.827L201.275 535.068L195.097 528.884L188.927 535.068L184.697 530.827L190.867 524.65L184.697 518.474L188.927 514.233L195.097 520.416L201.275 514.233Z" fill="#6C5495"/>
<path d="M101.824 420.536C101.824 475.042 57.6824 519.235 3.22469 519.235C-51.233 519.235 -95.3743 475.049 -95.3743 420.536C-95.3743 366.03 -51.233 321.837 3.22469 321.837C57.6824 321.837 101.824 366.023 101.824 420.536ZM-75.6629 420.536C-75.6629 464.149 -40.3443 499.504 3.22469 499.504C46.7937 499.504 82.1123 464.149 82.1123 420.536C82.1123 376.923 46.7937 341.569 3.22469 341.569C-40.3443 341.569 -75.6629 376.923 -75.6629 420.536Z" fill="#6C5495"/>
<path d="M146.133 421.941L146.133 424.715L143.362 424.715L143.362 421.941L146.133 421.941Z" stroke="#CBCBCB" stroke-width="1.0782" stroke-miterlimit="10"/>
<path d="M146.133 400.742L146.133 403.516L143.362 403.516L143.362 400.742L146.133 400.742Z" stroke="#CBCBCB" stroke-width="1.0782" stroke-miterlimit="10"/>
<path d="M146.133 379.55L146.133 382.324L143.362 382.324L143.362 379.55L146.133 379.55Z" stroke="#CBCBCB" stroke-width="1.0782" stroke-miterlimit="10"/>
<path d="M146.133 358.351L146.133 361.125L143.362 361.125L143.362 358.351L146.133 358.351Z" stroke="#CBCBCB" stroke-width="1.0782" stroke-miterlimit="10"/>
<path d="M146.133 337.153L146.133 339.927L143.362 339.927L143.362 337.153L146.133 337.153Z" stroke="#CBCBCB" stroke-width="1.0782" stroke-miterlimit="10"/>
<path d="M146.133 315.961L146.133 318.735L143.362 318.735L143.362 315.961L146.133 315.961Z" stroke="#CBCBCB" stroke-width="1.0782" stroke-miterlimit="10"/>
<path d="M130.693 421.941L130.693 424.715L127.922 424.715L127.922 421.941L130.693 421.941Z" stroke="#CBCBCB" stroke-width="1.0782" stroke-miterlimit="10"/>
<path d="M130.693 400.742L130.693 403.516L127.922 403.516L127.922 400.742L130.693 400.742Z" stroke="#6C5495" stroke-width="1.0782" stroke-miterlimit="10"/>
<path d="M130.693 379.55L130.693 382.324L127.922 382.324L127.922 379.55L130.693 379.55Z" stroke="#CBCBCB" stroke-width="1.0782" stroke-miterlimit="10"/>
<path d="M130.693 358.351L130.693 361.125L127.922 361.125L127.922 358.351L130.693 358.351Z" stroke="#CBCBCB" stroke-width="1.0782" stroke-miterlimit="10"/>
<path d="M130.693 337.153L130.693 339.927L127.922 339.927L127.922 337.153L130.693 337.153Z" stroke="#CBCBCB" stroke-width="1.0782" stroke-miterlimit="10"/>
<path d="M130.693 315.961L130.693 318.735L127.922 318.735L127.922 315.961L130.693 315.961Z" stroke="#CBCBCB" stroke-width="1.0782" stroke-miterlimit="10"/>
<path d="M115.26 421.941L115.26 424.715L112.489 424.715L112.489 421.941L115.26 421.941Z" stroke="#CBCBCB" stroke-width="1.0782" stroke-miterlimit="10"/>
<path d="M115.26 400.742L115.26 403.516L112.489 403.516L112.489 400.742L115.26 400.742Z" stroke="#CBCBCB" stroke-width="1.0782" stroke-miterlimit="10"/>
<path d="M115.26 379.55L115.26 382.324L112.489 382.324L112.489 379.55L115.26 379.55Z" stroke="#CBCBCB" stroke-width="1.0782" stroke-miterlimit="10"/>
<path d="M115.26 358.351L115.26 361.125L112.489 361.125L112.489 358.351L115.26 358.351Z" stroke="#6C5495" stroke-width="1.0782" stroke-miterlimit="10"/>
<path d="M115.26 337.153L115.26 339.927L112.489 339.927L112.489 337.153L115.26 337.153Z" stroke="#CBCBCB" stroke-width="1.0782" stroke-miterlimit="10"/>
<path d="M115.26 315.961L115.26 318.735L112.489 318.735L112.489 315.961L115.26 315.961Z" stroke="#CBCBCB" stroke-width="1.0782" stroke-miterlimit="10"/>
<path d="M99.8208 421.941L99.8208 424.715L97.0498 424.715L97.0498 421.941L99.8208 421.941Z" stroke="#CBCBCB" stroke-width="1.0782" stroke-miterlimit="10"/>
<path d="M99.8208 400.742L99.8208 403.516L97.0498 403.516L97.0498 400.742L99.8208 400.742Z" stroke="#CBCBCB" stroke-width="1.0782" stroke-miterlimit="10"/>
<path d="M99.8208 379.55L99.8208 382.324L97.0498 382.324L97.0498 379.55L99.8208 379.55Z" stroke="#CBCBCB" stroke-width="1.0782" stroke-miterlimit="10"/>
<path d="M99.8208 358.351L99.8208 361.125L97.0498 361.125L97.0498 358.351L99.8208 358.351Z" stroke="#CBCBCB" stroke-width="1.0782" stroke-miterlimit="10"/>
<path d="M99.8208 337.153L99.8208 339.927L97.0498 339.927L97.0498 337.153L99.8208 337.153Z" stroke="#CBCBCB" stroke-width="1.0782" stroke-miterlimit="10"/>
<path d="M99.8208 315.961L99.8208 318.735L97.0498 318.735L97.0498 315.961L99.8208 315.961Z" stroke="#CBCBCB" stroke-width="1.0782" stroke-miterlimit="10"/>
<path d="M84.3882 421.941L84.3882 424.715L81.6171 424.715L81.6171 421.941L84.3882 421.941Z" stroke="#CBCBCB" stroke-width="1.0782" stroke-miterlimit="10"/>
<path d="M84.3882 400.742L84.3882 403.516L81.6171 403.516L81.6171 400.742L84.3882 400.742Z" fill="#6C5495"/>
<path d="M84.3882 379.55L84.3882 382.324L81.6171 382.324L81.6171 379.55L84.3882 379.55Z" fill="#6C5495"/>
<path d="M84.3882 358.351L84.3882 361.125L81.6171 361.125L81.6171 358.351L84.3882 358.351Z" stroke="#CBCBCB" stroke-width="1.0782" stroke-miterlimit="10"/>
<path d="M84.3882 337.153L84.3882 339.927L81.6171 339.927L81.6171 337.153L84.3882 337.153Z" stroke="#6C5495" stroke-width="1.0782" stroke-miterlimit="10"/>
<path d="M84.3882 315.961L84.3882 318.735L81.6171 318.735L81.6171 315.961L84.3882 315.961Z" stroke="#CBCBCB" stroke-width="1.0782" stroke-miterlimit="10"/>
<path d="M68.9556 421.941L68.9556 424.715L66.1845 424.715L66.1845 421.941L68.9556 421.941Z" stroke="#CBCBCB" stroke-width="1.0782" stroke-miterlimit="10"/>
<path d="M68.9556 400.742L68.9556 403.516L66.1845 403.516L66.1845 400.742L68.9556 400.742Z" stroke="#CBCBCB" stroke-width="1.0782" stroke-miterlimit="10"/>
<path d="M68.9556 379.55L68.9556 382.324L66.1845 382.324L66.1845 379.55L68.9556 379.55Z" stroke="#CBCBCB" stroke-width="1.0782" stroke-miterlimit="10"/>
<path d="M68.9556 358.351L68.9556 361.125L66.1845 361.125L66.1845 358.351L68.9556 358.351Z" fill="#6C5495"/>
<path d="M68.9556 337.153L68.9556 339.927L66.1845 339.927L66.1845 337.153L68.9556 337.153Z" stroke="#CBCBCB" stroke-width="1.0782" stroke-miterlimit="10"/>
<path d="M68.9556 315.961L68.9556 318.735L66.1845 318.735L66.1845 315.961L68.9556 315.961Z" stroke="#CBCBCB" stroke-width="1.0782" stroke-miterlimit="10"/>
<path d="M53.5156 421.941L53.5156 424.715L50.7446 424.715L50.7446 421.941L53.5156 421.941Z" stroke="#CBCBCB" stroke-width="1.0782" stroke-miterlimit="10"/>
<path d="M53.5156 400.742L53.5156 403.516L50.7446 403.516L50.7446 400.742L53.5156 400.742Z" stroke="#CBCBCB" stroke-width="1.0782" stroke-miterlimit="10"/>
<path d="M53.5156 379.55L53.5156 382.324L50.7446 382.324L50.7446 379.55L53.5156 379.55Z" stroke="#CBCBCB" stroke-width="1.0782" stroke-miterlimit="10"/>
<path d="M53.5156 358.351L53.5156 361.125L50.7446 361.125L50.7446 358.351L53.5156 358.351Z" stroke="#CBCBCB" stroke-width="1.0782" stroke-miterlimit="10"/>
<path d="M53.5156 337.153L53.5156 339.927L50.7446 339.927L50.7446 337.153L53.5156 337.153Z" fill="#6C5495"/>
<path d="M53.5156 315.961L53.5156 318.735L50.7446 318.735L50.7446 315.961L53.5156 315.961Z" stroke="#CBCBCB" stroke-width="1.0782" stroke-miterlimit="10"/>
<path d="M144.786 503.277L-3.24555 651.451C-8.29904 656.51 -8.29904 664.705 -3.24555 669.757C1.80795 674.816 9.99546 674.816 15.042 669.757L163.073 521.583C168.127 516.524 168.127 508.328 163.073 503.277C158.02 498.218 149.832 498.218 144.786 503.277Z" stroke="#CBCBCB" stroke-width="2" stroke-miterlimit="10"/>
<path d="M81.3798 512.297L-31.605 625.396C-35.458 629.253 -35.458 635.513 -31.605 639.37C-27.7521 643.227 -21.498 643.227 -17.6451 639.37L95.3398 526.271C99.1927 522.414 99.1927 516.154 95.3398 512.297C91.4868 508.44 85.2328 508.44 81.3798 512.297Z" stroke="#CBCBCB" stroke-width="2" stroke-miterlimit="10"/>
<path d="M327.046 409.259L333.957 421.242L320.129 421.242L327.046 409.259Z" fill="#6C5495"/>
<path d="M327.046 389.185L333.957 401.175L320.129 401.175L327.046 389.185Z" fill="#6C5495"/>
<path d="M327.046 369.119L333.957 381.101L320.129 381.101L327.046 369.119Z" fill="#6C5495"/>
<path d="M96.896 90.8245L84.9183 97.7417L84.9183 83.9074L96.896 90.8245Z" fill="#6C5495"/>
<path d="M116.943 90.8245L104.972 97.7417L104.972 83.9074L116.943 90.8245Z" fill="#6C5495"/>
<path d="M136.996 90.8245L125.025 97.7417L125.025 83.9073L136.996 90.8245Z" fill="#6C5495"/>
<path d="M56.873 142.277L47.3942 151.766" stroke="#D8D9DA" stroke-width="0.7797" stroke-miterlimit="10"/>
<path d="M56.873 137.659L47.3942 147.147" stroke="#D8D9DA" stroke-width="0.7797" stroke-miterlimit="10"/>
<path d="M56.873 133.033L47.3942 142.522" stroke="#D8D9DA" stroke-width="0.7797" stroke-miterlimit="10"/>
<path d="M56.873 128.408L47.3942 137.896" stroke="#D8D9DA" stroke-width="0.7797" stroke-miterlimit="10"/>
<path d="M56.873 123.789L47.3942 133.278" stroke="#D8D9DA" stroke-width="0.7797" stroke-miterlimit="10"/>
<path d="M56.873 119.164L47.3942 128.653" stroke="#D8D9DA" stroke-width="0.7797" stroke-miterlimit="10"/>
<path d="M56.873 114.546L47.3942 124.034" stroke="#D8D9DA" stroke-width="0.7797" stroke-miterlimit="10"/>
<path d="M56.873 109.92L47.3942 119.409" stroke="#D8D9DA" stroke-width="0.7797" stroke-miterlimit="10"/>
<path d="M56.873 105.302L47.3942 114.79" stroke="#D8D9DA" stroke-width="0.7797" stroke-miterlimit="10"/>
<path d="M56.873 100.676L47.3942 110.165" stroke="#D8D9DA" stroke-width="0.7797" stroke-miterlimit="10"/>
<path d="M56.873 96.058L47.3942 105.539" stroke="#D8D9DA" stroke-width="0.7797" stroke-miterlimit="10"/>
<path d="M56.873 91.4325L47.3942 100.921" stroke="#D8D9DA" stroke-width="0.7797" stroke-miterlimit="10"/>
<path d="M56.873 86.8072L47.3942 96.2955" stroke="#D8D9DA" stroke-width="0.7797" stroke-miterlimit="10"/>
<path d="M66.0864 109.92L66.0864 151.766L62.5825 151.766L62.5825 109.92L66.0864 109.92Z" fill="#6C5495"/>
<path d="M66.0864 86.8071L66.0864 104.254L62.5825 104.254L62.5825 86.8071L66.0864 86.8071Z" fill="#6C5495"/>
<path d="M15.7323 127.993L13.6348 130.093L11.5372 127.993L13.6348 125.893L15.7323 127.993Z" fill="#CBCBCB"/>
<path d="M23.927 136.326L21.938 138.317L19.949 136.325L21.938 134.334L23.927 136.326Z" fill="#CBCBCB"/>
<path d="M32.1437 144.649L30.2583 146.537L28.3729 144.649L30.2583 142.762L32.1437 144.649Z" fill="#CBCBCB"/>
<path d="M40.3466 152.981L38.5698 154.76L36.793 152.981L38.5698 151.202L40.3466 152.981Z" fill="#CBCBCB"/>
<path d="M48.573 161.311L46.9048 162.981L45.2366 161.311L46.9048 159.641L48.573 161.311Z" fill="#CBCBCB"/>
<path d="M56.7735 169.633L55.209 171.199L53.6445 169.633L55.209 168.067L56.7735 169.633Z" fill="#CBCBCB"/>
<path d="M64.999 177.963L63.543 179.421L62.087 177.963L63.543 176.506L64.999 177.963Z" fill="#CBCBCB"/>
<path d="M73.1897 186.295L71.8423 187.643L70.4949 186.295L71.8423 184.946L73.1897 186.295Z" fill="#CBCBCB"/>
<path d="M81.4219 194.62L80.1782 195.865L78.9345 194.62L80.1782 193.375L81.4219 194.62Z" fill="#CBCBCB"/>
<path d="M89.6224 202.951L88.4873 204.088L87.3522 202.951L88.4873 201.815L89.6224 202.951Z" fill="#CBCBCB"/>
<path d="M97.8543 211.277L96.8228 212.31L95.7912 211.277L96.8227 210.244L97.8543 211.277Z" fill="#CBCBCB"/>
<path d="M106.045 219.603L105.122 220.527L104.199 219.603L105.122 218.679L106.045 219.603Z" fill="#CBCBCB"/>
<path d="M8.98918 134.741L6.8916 136.841L4.79402 134.741L6.8916 132.641L8.98918 134.741Z" fill="#CBCBCB"/>
<path d="M17.1893 143.068L15.2002 145.059L13.2112 143.068L15.2002 141.077L17.1893 143.068Z" fill="#CBCBCB"/>
<path d="M25.4206 151.398L23.5352 153.285L21.6498 151.398L23.5352 149.511L25.4206 151.398Z" fill="#CBCBCB"/>
<path d="M33.6167 159.73L31.8398 161.509L30.063 159.73L31.8399 157.952L33.6167 159.73Z" fill="#CBCBCB"/>
<path d="M41.8283 168.059L40.1602 169.729L38.492 168.059L40.1602 166.389L41.8283 168.059Z" fill="#CBCBCB"/>
<path d="M50.0446 176.383L48.48 177.949L46.9154 176.383L48.48 174.816L50.0446 176.383Z" fill="#CBCBCB"/>
<path d="M58.2538 184.711L56.7979 186.168L55.3419 184.711L56.7979 183.253L58.2538 184.711Z" fill="#CBCBCB"/>
<path d="M66.4695 193.04L65.1221 194.388L63.7747 193.04L65.1221 191.691L66.4695 193.04Z" fill="#CBCBCB"/>
<path d="M74.6886 201.368L73.4448 202.613L72.2011 201.368L73.4449 200.123L74.6886 201.368Z" fill="#CBCBCB"/>
<path d="M82.895 209.701L81.7598 210.838L80.6246 209.701L81.7598 208.565L82.895 209.701Z" fill="#CBCBCB"/>
<path d="M91.1087 218.025L90.0771 219.057L89.0456 218.025L90.0772 216.992L91.1087 218.025Z" fill="#CBCBCB"/>
<path d="M99.3443 226.356L98.4214 227.28L97.4984 226.356L98.4214 225.432L99.3443 226.356Z" fill="#CBCBCB"/>
<path d="M2.25046 141.493L0.152832 143.593L-1.94479 141.493L0.152832 139.394L2.25046 141.493Z" fill="#CBCBCB"/>
<path d="M10.4621 149.822L8.47314 151.813L6.48413 149.822L8.47311 147.831L10.4621 149.822Z" fill="#CBCBCB"/>
<path d="M18.6788 158.146L16.7935 160.033L14.9081 158.146L16.7935 156.258L18.6788 158.146Z" fill="#CBCBCB"/>
<path d="M26.891 166.474L25.1143 168.253L23.3374 166.474L25.1142 164.696L26.891 166.474Z" fill="#CBCBCB"/>
<path d="M35.0979 174.808L33.4297 176.478L31.7615 174.808L33.4297 173.138L35.0979 174.808Z" fill="#CBCBCB"/>
<path d="M43.3151 183.131L41.7505 184.698L40.1859 183.131L41.7505 181.565L43.3151 183.131Z" fill="#CBCBCB"/>
<path d="M51.5273 191.46L50.0713 192.917L48.6153 191.46L50.0713 190.002L51.5273 191.46Z" fill="#CBCBCB"/>
<path d="M59.7444 199.794L58.397 201.142L57.0496 199.794L58.397 198.445L59.7444 199.794Z" fill="#CBCBCB"/>
<path d="M67.9449 208.116L66.7012 209.361L65.4574 208.116L66.7011 206.871L67.9449 208.116Z" fill="#CBCBCB"/>
<path d="M76.1742 216.446L75.0391 217.582L73.9039 216.446L75.0391 215.309L76.1742 216.446Z" fill="#CBCBCB"/>
<path d="M84.3704 224.773L83.3389 225.806L82.3073 224.773L83.3388 223.74L84.3704 224.773Z" fill="#CBCBCB"/>
<path d="M92.6007 233.103L91.6777 234.027L90.7548 233.103L91.6777 232.179L92.6007 233.103Z" fill="#CBCBCB"/>
<path d="M3.69511 156.568L1.70605 158.559L-0.282972 156.568L1.70608 154.577L3.69511 156.568Z" fill="#CBCBCB"/>
<path d="M11.9235 164.893L10.0381 166.78L8.15269 164.893L10.0381 163.005L11.9235 164.893Z" fill="#CBCBCB"/>
<path d="M20.124 173.22L18.3472 174.999L16.5704 173.22L18.3472 171.442L20.124 173.22Z" fill="#CBCBCB"/>
<path d="M28.3464 181.55L26.6782 183.22L25.0101 181.55L26.6783 179.88L28.3464 181.55Z" fill="#CBCBCB"/>
<path d="M36.5533 189.877L34.9888 191.443L33.4242 189.877L34.9888 188.311L36.5533 189.877Z" fill="#CBCBCB"/>
<path d="M44.7743 198.211L43.3184 199.669L41.8624 198.212L43.3184 196.754L44.7743 198.211Z" fill="#CBCBCB"/>
<path d="M52.9695 206.539L51.6221 207.887L50.2747 206.539L51.6221 205.19L52.9695 206.539Z" fill="#CBCBCB"/>
<path d="M61.2042 214.864L59.9604 216.109L58.7167 214.864L59.9605 213.619L61.2042 214.864Z" fill="#CBCBCB"/>
<path d="M69.413 223.192L68.2778 224.328L67.1426 223.192L68.2778 222.056L69.413 223.192Z" fill="#CBCBCB"/>
<path d="M77.6297 231.515L76.5981 232.548L75.5666 231.515L76.5981 230.483L77.6297 231.515Z" fill="#CBCBCB"/>
<path d="M85.8649 239.851L84.9419 240.775L84.0189 239.851L84.9419 238.927L85.8649 239.851Z" fill="#CBCBCB"/>
<path d="M5.18032 171.64L3.29492 173.527L1.40952 171.64L3.29492 169.753L5.18032 171.64Z" fill="#CBCBCB"/>
<path d="M13.3789 179.968L11.6021 181.747L9.82523 179.968L11.6021 178.189L13.3789 179.968Z" fill="#CBCBCB"/>
<path d="M21.6081 188.302L19.9399 189.972L18.2718 188.302L19.9399 186.632L21.6081 188.302Z" fill="#CBCBCB"/>
<path d="M29.8082 196.625L28.2437 198.191L26.6791 196.625L28.2437 195.059L29.8082 196.625Z" fill="#CBCBCB"/>
<path d="M38.038 204.954L36.582 206.412L35.126 204.954L36.582 203.497L38.038 204.954Z" fill="#CBCBCB"/>
<path d="M46.2268 213.287L44.8794 214.635L43.532 213.287L44.8794 211.938L46.2268 213.287Z" fill="#CBCBCB"/>
<path d="M54.4586 221.611L53.2148 222.856L51.9711 221.611L53.2148 220.366L54.4586 221.611Z" fill="#CBCBCB"/>
<path d="M62.6498 229.938L61.5146 231.075L60.3795 229.938L61.5146 228.802L62.6498 229.938Z" fill="#CBCBCB"/>
<path d="M70.8914 238.268L69.8599 239.301L68.8283 238.268L69.8598 237.236L70.8914 238.268Z" fill="#CBCBCB"/>
<path d="M79.0841 246.595L78.1611 247.519L77.2382 246.595L78.1611 245.672L79.0841 246.595Z" fill="#CBCBCB"/>
<path d="M6.64011 186.721L4.86328 188.5L3.08648 186.721L4.86331 184.942L6.64011 186.721Z" fill="#CBCBCB"/>
<path d="M14.8527 195.05L13.1846 196.719L11.5164 195.05L13.1846 193.38L14.8527 195.05Z" fill="#CBCBCB"/>
<path d="M23.067 203.373L21.5024 204.939L19.9379 203.373L21.5025 201.807L23.067 203.373Z" fill="#CBCBCB"/>
<path d="M31.2924 211.702L29.8364 213.16L28.3805 211.702L29.8365 210.245L31.2924 211.702Z" fill="#CBCBCB"/>
<path d="M39.488 220.03L38.1406 221.379L36.7932 220.03L38.1406 218.681L39.488 220.03Z" fill="#CBCBCB"/>
<path d="M47.7252 228.359L46.4814 229.604L45.2377 228.359L46.4815 227.114L47.7252 228.359Z" fill="#CBCBCB"/>
<path d="M55.9154 236.692L54.7803 237.828L53.6451 236.692L54.7803 235.556L55.9154 236.692Z" fill="#CBCBCB"/>
<path d="M64.1483 245.016L63.1167 246.049L62.0852 245.016L63.1167 243.983L64.1483 245.016Z" fill="#CBCBCB"/>
<path d="M72.338 253.344L71.415 254.268L70.4921 253.344L71.415 252.42L72.338 253.344Z" fill="#CBCBCB"/>
<path d="M8.13501 201.798L6.4668 203.468L4.79858 201.798L6.4668 200.128L8.13501 201.798Z" fill="#CBCBCB"/>
<path d="M16.3238 210.121L14.7593 211.687L13.1947 210.121L14.7593 208.555L16.3238 210.121Z" fill="#CBCBCB"/>
<path d="M24.5473 218.45L23.0913 219.907L21.6353 218.45L23.0913 216.992L24.5473 218.45Z" fill="#CBCBCB"/>
<path d="M32.7517 226.783L31.4043 228.132L30.0569 226.783L31.4043 225.434L32.7517 226.783Z" fill="#CBCBCB"/>
<path d="M40.982 235.107L39.7383 236.352L38.4945 235.107L39.7383 233.862L40.982 235.107Z" fill="#CBCBCB"/>
<path d="M49.1752 243.435L48.04 244.571L46.9049 243.435L48.04 242.299L49.1752 243.435Z" fill="#CBCBCB"/>
<path d="M57.4027 251.764L56.3711 252.797L55.3395 251.764L56.3711 250.731L57.4027 251.764Z" fill="#CBCBCB"/>
<path d="M65.5948 260.092L64.6719 261.016L63.7489 260.092L64.6719 259.168L65.5948 260.092Z" fill="#CBCBCB"/>
<path d="M1.39673 208.541L-0.271484 210.211L-1.9397 208.541L-0.271484 206.871L1.39673 208.541Z" fill="#CBCBCB"/>
<path d="M9.60461 216.869L8.04004 218.435L6.4755 216.869L8.04007 215.303L9.60461 216.869Z" fill="#CBCBCB"/>
<path d="M17.8261 225.203L16.3701 226.661L14.9141 225.203L16.3701 223.746L17.8261 225.203Z" fill="#CBCBCB"/>
<path d="M26.0222 233.531L24.6748 234.88L23.3274 233.531L24.6748 232.183L26.0222 233.531Z" fill="#CBCBCB"/>
<path d="M34.2388 241.855L32.9951 243.1L31.7514 241.855L32.9951 240.61L34.2388 241.855Z" fill="#CBCBCB"/>
<path d="M42.4502 250.183L41.3149 251.32L40.1797 250.183L41.3149 249.047L42.4502 250.183Z" fill="#CBCBCB"/>
<path d="M50.6688 258.507L49.6372 259.54L48.6056 258.507L49.6372 257.475L50.6688 258.507Z" fill="#CBCBCB"/>
<path d="M58.9044 266.841L57.9814 267.765L57.0585 266.841L57.9814 265.917L58.9044 266.841Z" fill="#CBCBCB"/>
<path d="M2.87563 223.617L1.31104 225.183L-0.253558 223.617L1.31104 222.051L2.87563 223.617Z" fill="#CBCBCB"/>
<path d="M11.0878 231.946L9.63184 233.403L8.17583 231.946L9.63184 230.488L11.0878 231.946Z" fill="#CBCBCB"/>
<path d="M19.2952 240.279L17.9478 241.628L16.6003 240.279L17.9478 238.93L19.2952 240.279Z" fill="#CBCBCB"/>
<path d="M27.5123 248.603L26.2686 249.848L25.0248 248.603L26.2686 247.358L27.5123 248.603Z" fill="#CBCBCB"/>
<path d="M35.725 256.931L34.5898 258.067L33.4547 256.931L34.5898 255.795L35.725 256.931Z" fill="#CBCBCB"/>
<path d="M43.9481 265.26L42.9165 266.292L41.8849 265.26L42.9165 264.227L43.9481 265.26Z" fill="#CBCBCB"/>
<path d="M52.1588 273.588L51.2358 274.512L50.3129 273.588L51.2358 272.664L52.1588 273.588Z" fill="#CBCBCB"/>
<path d="M4.33101 238.693L2.875 240.151L1.41899 238.693L2.875 237.236L4.33101 238.693Z" fill="#CBCBCB"/>
<path d="M12.5247 247.022L11.1772 248.371L9.82984 247.022L11.1772 245.674L12.5247 247.022Z" fill="#CBCBCB"/>
<path d="M20.7569 255.355L19.5132 256.6L18.2694 255.355L19.5132 254.11L20.7569 255.355Z" fill="#CBCBCB"/>
<path d="M28.9662 263.684L27.8311 264.82L26.6959 263.684L27.8311 262.547L28.9662 263.684Z" fill="#CBCBCB"/>
<path d="M37.1849 272.007L36.1533 273.04L35.1218 272.007L36.1533 270.975L37.1849 272.007Z" fill="#CBCBCB"/>
<path d="M45.3986 280.336L44.4756 281.26L43.5526 280.336L44.4756 279.412L45.3986 280.336Z" fill="#CBCBCB"/>
<path d="M5.78686 253.775L4.43945 255.124L3.09205 253.775L4.43945 252.427L5.78686 253.775Z" fill="#CBCBCB"/>
<path d="M14.0192 262.098L12.7754 263.343L11.5316 262.098L12.7754 260.853L14.0192 262.098Z" fill="#CBCBCB"/>
<path d="M22.2143 270.427L21.0791 271.564L19.9439 270.427L21.0791 269.291L22.2143 270.427Z" fill="#CBCBCB"/>
<path d="M30.4417 278.755L29.4102 279.788L28.3787 278.755L29.4102 277.723L30.4417 278.755Z" fill="#CBCBCB"/>
<path d="M38.6319 287.085L37.709 288.008L36.786 287.085L37.709 286.161L38.6319 287.085Z" fill="#CBCBCB"/>
<path d="M7.25888 268.847L6.01514 270.092L4.77139 268.847L6.01514 267.602L7.25888 268.847Z" fill="#CBCBCB"/>
<path d="M15.4691 277.175L14.334 278.312L13.1988 277.175L14.334 276.039L15.4691 277.175Z" fill="#CBCBCB"/>
<path d="M23.7015 285.498L22.6699 286.531L21.6384 285.498L22.6699 284.466L23.7015 285.498Z" fill="#CBCBCB"/>
<path d="M31.8888 293.833L30.9658 294.757L30.0429 293.833L30.9658 292.909L31.8888 293.833Z" fill="#CBCBCB"/>
<path d="M99.8208 483.664C97.7547 483.664 96.0795 485.341 96.0795 487.409C96.0795 489.477 97.7547 491.154 99.8208 491.154C101.887 491.154 103.562 489.477 103.562 487.409C103.569 485.341 101.894 483.664 99.8208 483.664Z" stroke="#CBCBCB" stroke-miterlimit="10"/>
</g>
</g>
<defs>
<clipPath id="clip0_1_910">
<rect width="563.156" height="453" fill="white" transform="matrix(-1.19249e-08 -1 -1 1.19249e-08 453 563.156)"/>
</clipPath>
</defs>
</svg>
