<svg width="390" height="844" viewBox="0 0 390 844" fill="none" xmlns="http://www.w3.org/2000/svg">
<g opacity="0.5">
<g clip-path="url(#clip0_1_329)">
<path d="M53.0449 39.7471L130.158 -37.2625C132.361 -36.906 134.531 -36.4436 136.656 -35.881L54.4338 46.2426C53.8649 44.1146 53.4019 41.9531 53.0449 39.7471Z" stroke="#CBCBCB" stroke-width="1.0782" stroke-miterlimit="10"/>
<path d="M54.4336 46.2424L136.656 -35.8756C138.692 -35.3352 140.694 -34.7057 142.647 -33.9815L56.3245 52.2254C55.6049 50.2701 54.9746 48.2758 54.4336 46.2424Z" stroke="#CBCBCB" stroke-width="1.0782" stroke-miterlimit="10"/>
<path d="M67.9434 72.1297L162.577 -22.3831C163.999 -21.1854 165.382 -19.9376 166.699 -18.6229L71.7084 76.2465C70.3976 74.9318 69.1426 73.5503 67.9434 72.1297Z" stroke="#CBCBCB" stroke-width="1.0782" stroke-miterlimit="10"/>
<path d="M64.5127 67.6842L158.125 -25.8148C159.659 -24.7285 161.143 -23.5921 162.576 -22.3833L67.9431 72.1296C66.7382 70.6979 65.5948 69.2105 64.5127 67.6842Z" stroke="#CBCBCB" stroke-width="1.0782" stroke-miterlimit="10"/>
<path d="M58.667 57.7628L148.191 -31.6473C149.953 -30.8117 151.666 -29.8925 153.334 -28.9065L61.4113 62.899C60.4296 61.2333 59.5092 59.5231 58.667 57.7628Z" stroke="#CBCBCB" stroke-width="1.0782" stroke-miterlimit="10"/>
<path d="M61.4111 62.899L153.339 -28.9064C154.984 -27.9427 156.574 -26.9066 158.125 -25.8091L64.5124 67.6843C63.4136 66.1356 62.3761 64.5424 61.4111 62.899Z" stroke="#CBCBCB" stroke-width="1.0782" stroke-miterlimit="10"/>
<path d="M56.3242 52.2253L142.646 -33.9871C144.537 -33.2908 146.384 -32.5053 148.191 -31.6474L58.6669 57.7626C57.8079 55.9577 57.027 54.1138 56.3242 52.2253Z" stroke="#CBCBCB" stroke-width="1.0782" stroke-miterlimit="10"/>
<path d="M94.8668 -33.5245L56.7871 4.50677C63.6032 -12.8739 77.4641 -26.7171 94.8668 -33.5245Z" stroke="#CBCBCB" stroke-width="1.0782" stroke-miterlimit="10"/>
<path d="M56.7874 4.50672L94.8671 -33.5246C98.4592 -34.9284 102.191 -36.0481 106.051 -36.8225L53.4854 15.676C54.2662 11.8211 55.3818 8.09427 56.7874 4.50672Z" stroke="#CBCBCB" stroke-width="1.0782" stroke-miterlimit="10"/>
<path d="M52.2754 32.6447L123.041 -38.0311C125.451 -37.9029 127.821 -37.6356 130.153 -37.2623L53.0451 39.7473C52.6714 37.4188 52.4037 35.0512 52.2754 32.6447Z" stroke="#CBCBCB" stroke-width="1.0782" stroke-miterlimit="10"/>
<path d="M52.1689 28.951C52.1689 27.5304 52.2303 26.1266 52.314 24.7284L115.115 -37.9924C116.515 -38.0815 117.92 -38.1372 119.343 -38.1372C120.581 -38.1372 121.814 -38.0982 123.041 -38.0314L52.2749 32.6444C52.208 31.4188 52.1689 30.1932 52.1689 28.951Z" stroke="#CBCBCB" stroke-width="1.0782" stroke-miterlimit="10"/>
<path d="M53.4904 15.676L106.05 -36.8225C109.006 -37.413 112.03 -37.803 115.108 -37.9979L52.3135 24.7284C52.5087 21.6478 52.8936 18.6284 53.4904 15.676Z" stroke="#CBCBCB" stroke-width="1.0782" stroke-miterlimit="10"/>
<path d="M108.053 95.081L185.556 17.6759C185.947 19.9933 186.226 22.3441 186.376 24.734L115.125 95.8944C112.733 95.7495 110.373 95.471 108.053 95.081Z" stroke="#CBCBCB" stroke-width="1.0782" stroke-miterlimit="10"/>
<path d="M119.343 96.0392C117.926 96.0392 116.52 95.978 115.12 95.8944L186.377 24.734C186.466 26.1267 186.522 27.5305 186.522 28.951C186.522 30.1655 186.488 31.3687 186.421 32.5664L122.968 95.939C121.763 96.0058 120.558 96.0392 119.343 96.0392Z" stroke="#CBCBCB" stroke-width="1.0782" stroke-miterlimit="10"/>
<path d="M122.963 95.9389L186.422 32.5664C186.26 35.6192 185.881 38.6106 185.323 41.5408L131.949 94.8471C129.015 95.3986 126.02 95.7774 122.963 95.9389Z" stroke="#CBCBCB" stroke-width="1.0782" stroke-miterlimit="10"/>
<path d="M131.948 94.8471L185.322 41.5409C184.608 45.3067 183.582 48.9555 182.266 52.4706L142.892 91.7944C139.372 93.109 135.719 94.1285 131.948 94.8471Z" stroke="#CBCBCB" stroke-width="1.0782" stroke-miterlimit="10"/>
<path d="M142.893 91.7943L182.266 52.4706C175.467 70.5977 161.048 85.0036 142.893 91.7943Z" stroke="#CBCBCB" stroke-width="1.0782" stroke-miterlimit="10"/>
<path d="M101.594 93.6549L184.134 11.225C184.714 13.3363 185.188 15.4866 185.557 17.6759L108.053 95.0811C105.861 94.7078 103.708 94.2343 101.594 93.6549Z" stroke="#CBCBCB" stroke-width="1.0782" stroke-miterlimit="10"/>
<path d="M80.2363 83.4828L173.944 -10.1053C175.048 -8.56774 176.097 -6.98566 177.073 -5.35344L84.9942 86.608C83.3599 85.6331 81.7758 84.5858 80.2363 83.4828Z" stroke="#CBCBCB" stroke-width="1.0782" stroke-miterlimit="10"/>
<path d="M75.8076 80.0234L170.485 -14.5284C171.701 -13.1079 172.856 -11.6317 173.949 -10.1109L80.242 83.4772C78.7137 82.391 77.2355 81.2378 75.8076 80.0234Z" stroke="#CBCBCB" stroke-width="1.0782" stroke-miterlimit="10"/>
<path d="M95.6367 91.7275L182.204 5.26989C182.941 7.21407 183.582 9.19725 184.134 11.2194L101.594 93.6549C99.5691 93.1034 97.5778 92.4628 95.6367 91.7275Z" stroke="#CBCBCB" stroke-width="1.0782" stroke-miterlimit="10"/>
<path d="M71.708 76.2464L166.698 -18.6285C168.02 -17.3194 169.275 -15.9435 170.48 -14.5285L75.8077 80.0233C74.3909 78.8201 73.0188 77.5666 71.708 76.2464Z" stroke="#CBCBCB" stroke-width="1.0782" stroke-miterlimit="10"/>
<path d="M90.1152 89.371L179.84 -0.245182C180.71 1.54859 181.491 3.3925 182.205 5.26983L95.6373 91.7274C93.7575 91.0199 91.9113 90.24 90.1152 89.371Z" stroke="#CBCBCB" stroke-width="1.0782" stroke-miterlimit="10"/>
<path d="M84.9941 86.6079L177.073 -5.35358C178.066 -3.69351 178.991 -1.98886 179.839 -0.239656L90.1146 89.3709C88.3631 88.5242 86.6563 87.5939 84.9941 86.6079Z" stroke="#CBCBCB" stroke-width="1.0782" stroke-miterlimit="10"/>
<path d="M167.518 39.0061L164.138 35.6246L169.068 30.7001L164.138 25.7756L167.518 22.3942L172.449 27.3243L177.385 22.3942L180.765 25.7756L175.834 30.7001L180.765 35.6246L177.385 39.0061L172.449 34.076L167.518 39.0061Z" fill="#6C5495"/>
<path d="M198.341 39.0061L194.955 35.6246L199.891 30.7001L194.955 25.7756L198.341 22.3942L203.272 27.3243L208.202 22.3942L211.588 25.7756L206.652 30.7001L211.588 35.6246L208.202 39.0061L203.272 34.076L198.341 39.0061Z" fill="#6C5495"/>
<path d="M229.158 39.0061L225.778 35.6246L230.709 30.7001L225.778 25.7756L229.158 22.3942L234.095 27.3243L239.026 22.3942L242.406 25.7756L237.475 30.7001L242.406 35.6246L239.026 39.0061L234.095 34.076L229.158 39.0061Z" fill="#6C5495"/>
<path d="M308.631 113.71C308.631 70.2524 343.905 35.0176 387.423 35.0176C430.941 35.0176 466.215 70.2468 466.215 113.71C466.215 157.167 430.941 192.402 387.423 192.402C343.905 192.402 308.631 157.172 308.631 113.71ZM450.463 113.71C450.463 78.9371 422.24 50.7493 387.423 50.7493C352.606 50.7493 324.383 78.9371 324.383 113.71C324.383 148.482 352.606 176.67 387.423 176.67C422.24 176.67 450.463 148.482 450.463 113.71Z" fill="#6C5495"/>
<path d="M273.224 112.59L273.224 110.378L275.438 110.378L275.438 112.59L273.224 112.59Z" stroke="#CBCBCB" stroke-width="1.0782" stroke-miterlimit="10"/>
<path d="M273.224 129.491L273.224 127.28L275.438 127.28L275.438 129.491L273.224 129.491Z" stroke="#CBCBCB" stroke-width="1.0782" stroke-miterlimit="10"/>
<path d="M273.224 146.387L273.224 144.176L275.438 144.176L275.438 146.387L273.224 146.387Z" stroke="#CBCBCB" stroke-width="1.0782" stroke-miterlimit="10"/>
<path d="M273.224 163.289L273.224 161.077L275.438 161.077L275.438 163.289L273.224 163.289Z" stroke="#CBCBCB" stroke-width="1.0782" stroke-miterlimit="10"/>
<path d="M273.224 180.19L273.224 177.979L275.438 177.979L275.438 180.19L273.224 180.19Z" stroke="#CBCBCB" stroke-width="1.0782" stroke-miterlimit="10"/>
<path d="M273.224 197.086L273.224 194.875L275.438 194.875L275.438 197.086L273.224 197.086Z" stroke="#CBCBCB" stroke-width="1.0782" stroke-miterlimit="10"/>
<path d="M285.562 112.59L285.562 110.378L287.776 110.378L287.776 112.59L285.562 112.59Z" stroke="#CBCBCB" stroke-width="1.0782" stroke-miterlimit="10"/>
<path d="M285.562 129.491L285.562 127.28L287.776 127.28L287.776 129.491L285.562 129.491Z" stroke="#6C5495" stroke-width="1.0782" stroke-miterlimit="10"/>
<path d="M285.562 146.387L285.562 144.176L287.776 144.176L287.776 146.387L285.562 146.387Z" stroke="#CBCBCB" stroke-width="1.0782" stroke-miterlimit="10"/>
<path d="M285.562 163.289L285.562 161.077L287.776 161.077L287.776 163.289L285.562 163.289Z" stroke="#CBCBCB" stroke-width="1.0782" stroke-miterlimit="10"/>
<path d="M285.562 180.19L285.562 177.979L287.776 177.979L287.776 180.19L285.562 180.19Z" stroke="#CBCBCB" stroke-width="1.0782" stroke-miterlimit="10"/>
<path d="M285.562 197.086L285.562 194.875L287.776 194.875L287.776 197.086L285.562 197.086Z" stroke="#CBCBCB" stroke-width="1.0782" stroke-miterlimit="10"/>
<path d="M297.895 112.59L297.895 110.378L300.109 110.378L300.109 112.59L297.895 112.59Z" stroke="#CBCBCB" stroke-width="1.0782" stroke-miterlimit="10"/>
<path d="M297.895 129.491L297.895 127.28L300.109 127.28L300.109 129.491L297.895 129.491Z" stroke="#CBCBCB" stroke-width="1.0782" stroke-miterlimit="10"/>
<path d="M297.895 146.387L297.895 144.176L300.109 144.176L300.109 146.387L297.895 146.387Z" stroke="#CBCBCB" stroke-width="1.0782" stroke-miterlimit="10"/>
<path d="M297.895 163.289L297.895 161.077L300.109 161.077L300.109 163.289L297.895 163.289Z" stroke="#6C5495" stroke-width="1.0782" stroke-miterlimit="10"/>
<path d="M297.895 180.19L297.895 177.979L300.109 177.979L300.109 180.19L297.895 180.19Z" stroke="#CBCBCB" stroke-width="1.0782" stroke-miterlimit="10"/>
<path d="M297.895 197.086L297.895 194.875L300.109 194.875L300.109 197.086L297.895 197.086Z" stroke="#CBCBCB" stroke-width="1.0782" stroke-miterlimit="10"/>
<path d="M310.232 112.59L310.232 110.378L312.447 110.378L312.447 112.59L310.232 112.59Z" stroke="#CBCBCB" stroke-width="1.0782" stroke-miterlimit="10"/>
<path d="M310.232 129.491L310.232 127.28L312.447 127.28L312.447 129.491L310.232 129.491Z" stroke="#CBCBCB" stroke-width="1.0782" stroke-miterlimit="10"/>
<path d="M310.232 146.387L310.232 144.176L312.447 144.176L312.447 146.387L310.232 146.387Z" stroke="#CBCBCB" stroke-width="1.0782" stroke-miterlimit="10"/>
<path d="M310.232 163.289L310.232 161.077L312.447 161.077L312.447 163.289L310.232 163.289Z" stroke="#CBCBCB" stroke-width="1.0782" stroke-miterlimit="10"/>
<path d="M310.232 180.19L310.232 177.979L312.447 177.979L312.447 180.19L310.232 180.19Z" stroke="#CBCBCB" stroke-width="1.0782" stroke-miterlimit="10"/>
<path d="M310.232 197.086L310.232 194.875L312.447 194.875L312.447 197.086L310.232 197.086Z" stroke="#CBCBCB" stroke-width="1.0782" stroke-miterlimit="10"/>
<path d="M322.564 112.59L322.564 110.378L324.779 110.378L324.779 112.59L322.564 112.59Z" stroke="#CBCBCB" stroke-width="1.0782" stroke-miterlimit="10"/>
<path d="M322.564 129.491L322.564 127.28L324.779 127.28L324.779 129.491L322.564 129.491Z" fill="#6C5495"/>
<path d="M322.564 146.387L322.564 144.176L324.779 144.176L324.779 146.387L322.564 146.387Z" fill="#6C5495"/>
<path d="M322.564 163.289L322.564 161.077L324.779 161.077L324.779 163.289L322.564 163.289Z" stroke="#CBCBCB" stroke-width="1.0782" stroke-miterlimit="10"/>
<path d="M322.564 180.19L322.564 177.979L324.779 177.979L324.779 180.19L322.564 180.19Z" stroke="#6C5495" stroke-width="1.0782" stroke-miterlimit="10"/>
<path d="M322.564 197.086L322.564 194.875L324.779 194.875L324.779 197.086L322.564 197.086Z" stroke="#CBCBCB" stroke-width="1.0782" stroke-miterlimit="10"/>
<path d="M334.897 112.59L334.897 110.378L337.112 110.378L337.112 112.59L334.897 112.59Z" stroke="#CBCBCB" stroke-width="1.0782" stroke-miterlimit="10"/>
<path d="M334.897 129.491L334.897 127.28L337.112 127.28L337.112 129.491L334.897 129.491Z" stroke="#CBCBCB" stroke-width="1.0782" stroke-miterlimit="10"/>
<path d="M334.897 146.387L334.897 144.176L337.112 144.176L337.112 146.387L334.897 146.387Z" stroke="#CBCBCB" stroke-width="1.0782" stroke-miterlimit="10"/>
<path d="M334.897 163.289L334.897 161.077L337.112 161.077L337.112 163.289L334.897 163.289Z" fill="#6C5495"/>
<path d="M334.897 180.19L334.897 177.979L337.112 177.979L337.112 180.19L334.897 180.19Z" stroke="#CBCBCB" stroke-width="1.0782" stroke-miterlimit="10"/>
<path d="M334.897 197.086L334.897 194.875L337.112 194.875L337.112 197.086L334.897 197.086Z" stroke="#CBCBCB" stroke-width="1.0782" stroke-miterlimit="10"/>
<path d="M347.235 112.59L347.235 110.378L349.45 110.378L349.45 112.59L347.235 112.59Z" stroke="#CBCBCB" stroke-width="1.0782" stroke-miterlimit="10"/>
<path d="M347.235 129.491L347.235 127.28L349.45 127.28L349.45 129.491L347.235 129.491Z" stroke="#CBCBCB" stroke-width="1.0782" stroke-miterlimit="10"/>
<path d="M347.235 146.387L347.235 144.176L349.45 144.176L349.45 146.387L347.235 146.387Z" stroke="#CBCBCB" stroke-width="1.0782" stroke-miterlimit="10"/>
<path d="M347.235 163.289L347.235 161.077L349.45 161.077L349.45 163.289L347.235 163.289Z" stroke="#CBCBCB" stroke-width="1.0782" stroke-miterlimit="10"/>
<path d="M347.235 180.19L347.235 177.979L349.45 177.979L349.45 180.19L347.235 180.19Z" fill="#6C5495"/>
<path d="M347.235 197.086L347.235 194.875L349.45 194.875L349.45 197.086L347.235 197.086Z" stroke="#CBCBCB" stroke-width="1.0782" stroke-miterlimit="10"/>
<path d="M274.3 47.741L392.594 -70.3972C396.632 -74.4304 396.632 -80.9649 392.594 -84.9925C388.556 -89.0257 382.013 -89.0257 377.98 -84.9925L259.686 33.1458C255.648 37.179 255.648 43.7134 259.686 47.741C263.724 51.7742 270.267 51.7742 274.3 47.741Z" stroke="#CBCBCB" stroke-width="2" stroke-miterlimit="10"/>
<path d="M324.969 40.5494L415.257 -49.6239C418.336 -52.6989 418.336 -57.6903 415.257 -60.7653C412.178 -63.8404 407.18 -63.8404 404.101 -60.7653L313.813 29.4079C310.734 32.483 310.734 37.4743 313.813 40.5494C316.892 43.6244 321.89 43.6244 324.969 40.5494Z" stroke="#CBCBCB" stroke-width="2" stroke-miterlimit="10"/>
<path d="M128.652 122.701L123.13 113.147L134.18 113.147L128.652 122.701Z" fill="#6C5495"/>
<path d="M128.652 138.705L123.13 129.146L134.18 129.146L128.652 138.705Z" fill="#6C5495"/>
<path d="M128.652 154.704L123.13 145.151L134.18 145.151L128.652 154.704Z" fill="#6C5495"/>
<path d="M312.569 376.586L322.141 371.071L322.141 382.101L312.569 376.586Z" fill="#6C5495"/>
<path d="M296.55 376.586L306.116 371.071L306.116 382.101L296.55 376.586Z" fill="#6C5495"/>
<path d="M280.524 376.586L290.09 371.071L290.09 382.101L280.524 376.586Z" fill="#6C5495"/>
<path d="M344.553 335.563L352.127 327.998" stroke="#D8D9DA" stroke-width="0.7797" stroke-miterlimit="10"/>
<path d="M344.553 339.246L352.127 331.681" stroke="#D8D9DA" stroke-width="0.7797" stroke-miterlimit="10"/>
<path d="M344.553 342.933L352.127 335.368" stroke="#D8D9DA" stroke-width="0.7797" stroke-miterlimit="10"/>
<path d="M344.553 346.621L352.127 339.056" stroke="#D8D9DA" stroke-width="0.7797" stroke-miterlimit="10"/>
<path d="M344.553 350.304L352.127 342.739" stroke="#D8D9DA" stroke-width="0.7797" stroke-miterlimit="10"/>
<path d="M344.553 353.991L352.127 346.426" stroke="#D8D9DA" stroke-width="0.7797" stroke-miterlimit="10"/>
<path d="M344.553 357.674L352.127 350.109" stroke="#D8D9DA" stroke-width="0.7797" stroke-miterlimit="10"/>
<path d="M344.553 361.361L352.127 353.796" stroke="#D8D9DA" stroke-width="0.7797" stroke-miterlimit="10"/>
<path d="M344.553 365.044L352.127 357.479" stroke="#D8D9DA" stroke-width="0.7797" stroke-miterlimit="10"/>
<path d="M344.553 368.731L352.127 361.166" stroke="#D8D9DA" stroke-width="0.7797" stroke-miterlimit="10"/>
<path d="M344.553 372.414L352.127 364.854" stroke="#D8D9DA" stroke-width="0.7797" stroke-miterlimit="10"/>
<path d="M344.553 376.102L352.127 368.536" stroke="#D8D9DA" stroke-width="0.7797" stroke-miterlimit="10"/>
<path d="M344.553 379.789L352.127 372.224" stroke="#D8D9DA" stroke-width="0.7797" stroke-miterlimit="10"/>
<path d="M337.189 361.361L337.189 327.998L339.99 327.998L339.99 361.361L337.189 361.361Z" fill="#6C5495"/>
<path d="M337.189 379.789L337.189 365.879L339.99 365.879L339.99 379.789L337.189 379.789Z" fill="#6C5495"/>
<path d="M377.428 346.952L379.104 345.278L380.781 346.952L379.104 348.626L377.428 346.952Z" fill="#CBCBCB"/>
<path d="M370.879 340.309L372.469 338.721L374.058 340.309L372.469 341.896L370.879 340.309Z" fill="#CBCBCB"/>
<path d="M364.314 333.672L365.82 332.167L367.327 333.672L365.82 335.177L364.314 333.672Z" fill="#CBCBCB"/>
<path d="M357.758 327.029L359.178 325.611L360.598 327.029L359.178 328.447L357.758 327.029Z" fill="#CBCBCB"/>
<path d="M351.184 320.388L352.518 319.056L353.851 320.388L352.518 321.719L351.184 320.388Z" fill="#CBCBCB"/>
<path d="M344.632 313.753L345.882 312.504L347.132 313.753L345.882 315.002L344.632 313.753Z" fill="#CBCBCB"/>
<path d="M338.058 307.111L339.222 305.949L340.385 307.111L339.222 308.273L338.058 307.111Z" fill="#CBCBCB"/>
<path d="M331.513 300.469L332.59 299.393L333.667 300.469L332.59 301.544L331.513 300.469Z" fill="#CBCBCB"/>
<path d="M324.934 293.831L325.928 292.838L326.922 293.831L325.928 294.824L324.934 293.831Z" fill="#CBCBCB"/>
<path d="M318.381 287.188L319.288 286.282L320.195 287.188L319.288 288.094L318.381 287.188Z" fill="#CBCBCB"/>
<path d="M311.803 280.55L312.627 279.727L313.451 280.55L312.627 281.374L311.803 280.55Z" fill="#CBCBCB"/>
<path d="M305.258 273.912L305.995 273.176L306.733 273.912L305.995 274.649L305.258 273.912Z" fill="#CBCBCB"/>
<path d="M382.817 341.572L384.493 339.898L386.169 341.572L384.493 343.246L382.817 341.572Z" fill="#CBCBCB"/>
<path d="M376.264 334.933L377.854 333.345L379.443 334.933L377.853 336.52L376.264 334.933Z" fill="#CBCBCB"/>
<path d="M369.686 328.292L371.192 326.787L372.699 328.292L371.192 329.796L369.686 328.292Z" fill="#CBCBCB"/>
<path d="M363.137 321.648L364.557 320.23L365.977 321.648L364.557 323.066L363.137 321.648Z" fill="#CBCBCB"/>
<path d="M356.574 315.008L357.907 313.676L359.24 315.008L357.907 316.339L356.574 315.008Z" fill="#CBCBCB"/>
<path d="M350.008 308.371L351.259 307.123L352.509 308.371L351.259 309.62L350.008 308.371Z" fill="#CBCBCB"/>
<path d="M343.449 301.731L344.612 300.569L345.776 301.731L344.612 302.893L343.449 301.731Z" fill="#CBCBCB"/>
<path d="M336.883 295.091L337.96 294.015L339.037 295.091L337.96 296.166L336.883 295.091Z" fill="#CBCBCB"/>
<path d="M330.315 288.451L331.309 287.458L332.302 288.451L331.309 289.443L330.315 288.451Z" fill="#CBCBCB"/>
<path d="M323.757 281.807L324.664 280.901L325.571 281.807L324.664 282.713L323.757 281.807Z" fill="#CBCBCB"/>
<path d="M317.193 275.171L318.018 274.347L318.842 275.171L318.018 275.994L317.193 275.171Z" fill="#CBCBCB"/>
<path d="M310.612 268.528L311.35 267.791L312.087 268.528L311.35 269.265L310.612 268.528Z" fill="#CBCBCB"/>
<path d="M388.202 336.188L389.878 334.514L391.554 336.188L389.878 337.862L388.202 336.188Z" fill="#CBCBCB"/>
<path d="M381.639 329.548L383.229 327.96L384.818 329.548L383.229 331.135L381.639 329.548Z" fill="#CBCBCB"/>
<path d="M375.072 322.912L376.579 321.407L378.086 322.912L376.579 324.416L375.072 322.912Z" fill="#CBCBCB"/>
<path d="M368.511 316.271L369.931 314.853L371.351 316.271L369.931 317.689L368.511 316.271Z" fill="#CBCBCB"/>
<path d="M361.952 309.627L363.285 308.296L364.618 309.627L363.285 310.958L361.952 309.627Z" fill="#CBCBCB"/>
<path d="M355.385 302.991L356.636 301.742L357.886 302.991L356.636 304.239L355.385 302.991Z" fill="#CBCBCB"/>
<path d="M348.824 296.35L349.987 295.188L351.151 296.35L349.987 297.512L348.824 296.35Z" fill="#CBCBCB"/>
<path d="M342.257 289.706L343.334 288.631L344.411 289.706L343.334 290.781L342.257 289.706Z" fill="#CBCBCB"/>
<path d="M335.703 283.071L336.697 282.078L337.691 283.071L336.697 284.063L335.703 283.071Z" fill="#CBCBCB"/>
<path d="M329.127 276.429L330.034 275.523L330.941 276.429L330.034 277.335L329.127 276.429Z" fill="#CBCBCB"/>
<path d="M322.578 269.79L323.402 268.967L324.227 269.79L323.402 270.613L322.578 269.79Z" fill="#CBCBCB"/>
<path d="M316.001 263.148L316.738 262.412L317.476 263.148L316.738 263.885L316.001 263.148Z" fill="#CBCBCB"/>
<path d="M387.047 324.169L388.637 322.582L390.226 324.169L388.637 325.757L387.047 324.169Z" fill="#CBCBCB"/>
<path d="M380.472 317.532L381.979 316.027L383.485 317.532L381.979 319.037L380.472 317.532Z" fill="#CBCBCB"/>
<path d="M373.918 310.893L375.338 309.475L376.758 310.893L375.338 312.311L373.918 310.893Z" fill="#CBCBCB"/>
<path d="M367.348 304.252L368.681 302.92L370.014 304.252L368.681 305.583L367.348 304.252Z" fill="#CBCBCB"/>
<path d="M360.79 297.612L362.04 296.364L363.29 297.612L362.04 298.861L360.79 297.612Z" fill="#CBCBCB"/>
<path d="M354.22 290.967L355.384 289.805L356.547 290.967L355.384 292.129L354.22 290.967Z" fill="#CBCBCB"/>
<path d="M347.671 284.328L348.748 283.253L349.825 284.328L348.748 285.404L347.671 284.328Z" fill="#CBCBCB"/>
<path d="M341.091 277.691L342.085 276.698L343.079 277.691L342.085 278.683L341.091 277.691Z" fill="#CBCBCB"/>
<path d="M334.53 271.051L335.438 270.145L336.345 271.051L335.438 271.956L334.53 271.051Z" fill="#CBCBCB"/>
<path d="M327.965 264.414L328.789 263.591L329.613 264.414L328.789 265.238L327.965 264.414Z" fill="#CBCBCB"/>
<path d="M321.384 257.769L322.121 257.032L322.859 257.769L322.121 258.505L321.384 257.769Z" fill="#CBCBCB"/>
<path d="M385.861 312.153L387.367 310.648L388.874 312.153L387.367 313.657L385.861 312.153Z" fill="#CBCBCB"/>
<path d="M379.309 305.513L380.729 304.095L382.148 305.513L380.729 306.931L379.309 305.513Z" fill="#CBCBCB"/>
<path d="M372.732 298.868L374.065 297.537L375.398 298.868L374.065 300.199L372.732 298.868Z" fill="#CBCBCB"/>
<path d="M366.179 292.232L367.43 290.984L368.68 292.232L367.43 293.481L366.179 292.232Z" fill="#CBCBCB"/>
<path d="M359.603 285.591L360.767 284.429L361.93 285.591L360.767 286.753L359.603 285.591Z" fill="#CBCBCB"/>
<path d="M353.06 278.948L354.137 277.873L355.213 278.948L354.137 280.023L353.06 278.948Z" fill="#CBCBCB"/>
<path d="M346.481 272.311L347.475 271.318L348.469 272.311L347.475 273.304L346.481 272.311Z" fill="#CBCBCB"/>
<path d="M339.936 265.672L340.843 264.766L341.75 265.672L340.843 266.578L339.936 265.672Z" fill="#CBCBCB"/>
<path d="M333.35 259.03L334.174 258.207L334.998 259.03L334.174 259.854L333.35 259.03Z" fill="#CBCBCB"/>
<path d="M326.802 252.391L327.54 251.655L328.278 252.391L327.54 253.128L326.802 252.391Z" fill="#CBCBCB"/>
<path d="M384.693 300.129L386.113 298.711L387.533 300.129L386.113 301.547L384.693 300.129Z" fill="#CBCBCB"/>
<path d="M378.131 293.488L379.464 292.157L380.797 293.488L379.464 294.82L378.131 293.488Z" fill="#CBCBCB"/>
<path d="M371.567 286.852L372.817 285.603L374.068 286.852L372.817 288.101L371.567 286.852Z" fill="#CBCBCB"/>
<path d="M364.994 280.211L366.157 279.049L367.321 280.211L366.157 281.373L364.994 280.211Z" fill="#CBCBCB"/>
<path d="M358.445 273.572L359.521 272.496L360.598 273.572L359.521 274.647L358.445 273.572Z" fill="#CBCBCB"/>
<path d="M351.862 266.931L352.855 265.938L353.849 266.931L352.855 267.923L351.862 266.931Z" fill="#CBCBCB"/>
<path d="M345.317 260.287L346.224 259.381L347.131 260.287L346.224 261.193L345.317 260.287Z" fill="#CBCBCB"/>
<path d="M338.738 253.65L339.562 252.827L340.387 253.65L339.562 254.474L338.738 253.65Z" fill="#CBCBCB"/>
<path d="M332.193 247.011L332.931 246.274L333.668 247.011L332.931 247.748L332.193 247.011Z" fill="#CBCBCB"/>
<path d="M383.499 288.108L384.832 286.776L386.165 288.108L384.832 289.439L383.499 288.108Z" fill="#CBCBCB"/>
<path d="M376.956 281.472L378.206 280.223L379.456 281.472L378.206 282.721L376.956 281.472Z" fill="#CBCBCB"/>
<path d="M370.383 274.832L371.547 273.67L372.71 274.832L371.547 275.994L370.383 274.832Z" fill="#CBCBCB"/>
<path d="M363.828 268.188L364.904 267.112L365.981 268.188L364.904 269.263L363.828 268.188Z" fill="#CBCBCB"/>
<path d="M357.25 261.551L358.244 260.558L359.238 261.551L358.244 262.544L357.25 261.551Z" fill="#CBCBCB"/>
<path d="M350.703 254.911L351.61 254.005L352.517 254.911L351.61 255.817L350.703 254.911Z" fill="#CBCBCB"/>
<path d="M344.129 248.27L344.953 247.447L345.777 248.27L344.953 249.094L344.129 248.27Z" fill="#CBCBCB"/>
<path d="M337.582 241.631L338.319 240.894L339.057 241.631L338.319 242.367L337.582 241.631Z" fill="#CBCBCB"/>
<path d="M388.884 282.732L390.217 281.4L391.55 282.732L390.217 284.063L388.884 282.732Z" fill="#CBCBCB"/>
<path d="M382.325 276.092L383.575 274.843L384.825 276.092L383.575 277.34L382.325 276.092Z" fill="#CBCBCB"/>
<path d="M375.755 269.447L376.919 268.285L378.082 269.447L376.919 270.609L375.755 269.447Z" fill="#CBCBCB"/>
<path d="M369.205 262.807L370.282 261.732L371.359 262.807L370.282 263.883L369.205 262.807Z" fill="#CBCBCB"/>
<path d="M362.639 256.171L363.633 255.178L364.627 256.171L363.633 257.164L362.639 256.171Z" fill="#CBCBCB"/>
<path d="M356.077 249.53L356.984 248.624L357.892 249.53L356.984 250.436L356.077 249.53Z" fill="#CBCBCB"/>
<path d="M349.51 242.894L350.334 242.071L351.158 242.894L350.334 243.717L349.51 242.894Z" fill="#CBCBCB"/>
<path d="M342.928 236.25L343.666 235.513L344.404 236.25L343.666 236.986L342.928 236.25Z" fill="#CBCBCB"/>
<path d="M387.702 270.712L388.952 269.463L390.202 270.712L388.952 271.96L387.702 270.712Z" fill="#CBCBCB"/>
<path d="M381.14 264.071L382.304 262.909L383.467 264.071L382.304 265.233L381.14 264.071Z" fill="#CBCBCB"/>
<path d="M374.581 257.427L375.658 256.352L376.735 257.427L375.658 258.503L374.581 257.427Z" fill="#CBCBCB"/>
<path d="M368.015 250.791L369.009 249.798L370.003 250.791L369.009 251.783L368.015 250.791Z" fill="#CBCBCB"/>
<path d="M361.451 244.151L362.358 243.245L363.266 244.151L362.358 245.057L361.451 244.151Z" fill="#CBCBCB"/>
<path d="M354.881 237.51L355.705 236.687L356.529 237.51L355.705 238.334L354.881 237.51Z" fill="#CBCBCB"/>
<path d="M348.319 230.87L349.057 230.134L349.794 230.87L349.057 231.607L348.319 230.87Z" fill="#CBCBCB"/>
<path d="M386.539 258.691L387.702 257.529L388.866 258.691L387.702 259.853L386.539 258.691Z" fill="#CBCBCB"/>
<path d="M379.991 252.051L381.067 250.975L382.144 252.051L381.067 253.126L379.991 252.051Z" fill="#CBCBCB"/>
<path d="M373.412 245.407L374.406 244.415L375.4 245.407L374.406 246.4L373.412 245.407Z" fill="#CBCBCB"/>
<path d="M366.852 238.767L367.759 237.861L368.666 238.767L367.759 239.673L366.852 238.767Z" fill="#CBCBCB"/>
<path d="M360.284 232.131L361.108 231.307L361.933 232.131L361.108 232.954L360.284 232.131Z" fill="#CBCBCB"/>
<path d="M353.72 225.49L354.458 224.754L355.196 225.49L354.458 226.227L353.72 225.49Z" fill="#CBCBCB"/>
<path d="M385.376 246.667L386.453 245.591L387.53 246.667L386.453 247.742L385.376 246.667Z" fill="#CBCBCB"/>
<path d="M378.797 240.031L379.791 239.038L380.785 240.031L379.791 241.024L378.797 240.031Z" fill="#CBCBCB"/>
<path d="M372.248 233.39L373.155 232.484L374.062 233.39L373.155 234.296L372.248 233.39Z" fill="#CBCBCB"/>
<path d="M365.674 226.75L366.498 225.927L367.322 226.75L366.498 227.574L365.674 226.75Z" fill="#CBCBCB"/>
<path d="M359.129 220.11L359.866 219.373L360.604 220.11L359.866 220.846L359.129 220.11Z" fill="#CBCBCB"/>
<path d="M384.199 234.65L385.193 233.658L386.187 234.65L385.193 235.643L384.199 234.65Z" fill="#CBCBCB"/>
<path d="M377.639 228.01L378.546 227.104L379.453 228.01L378.546 228.916L377.639 228.01Z" fill="#CBCBCB"/>
<path d="M371.06 221.374L371.885 220.551L372.709 221.374L371.885 222.198L371.06 221.374Z" fill="#CBCBCB"/>
<path d="M364.517 214.729L365.255 213.993L365.992 214.729L365.255 215.466L364.517 214.729Z" fill="#CBCBCB"/>
<path d="M310.232 63.3781C311.883 63.3781 313.222 62.0412 313.222 60.3922C313.222 58.7433 311.883 57.4063 310.232 57.4063C308.581 57.4063 307.242 58.7433 307.242 60.3922C307.237 62.0412 308.575 63.3781 310.232 63.3781Z" stroke="#CBCBCB" stroke-miterlimit="10"/>
</g>
<g clip-path="url(#clip1_1_329)">
<path d="M340.679 803.722L262.713 881.76C260.486 881.399 258.292 880.931 256.143 880.36L339.274 797.139C339.85 799.296 340.318 801.486 340.679 803.722Z" stroke="#CBCBCB" stroke-width="1.0782" stroke-miterlimit="10"/>
<path d="M339.274 797.14L256.143 880.355C254.085 879.807 252.06 879.169 250.087 878.436L337.363 791.077C338.09 793.058 338.727 795.079 339.274 797.14Z" stroke="#CBCBCB" stroke-width="1.0782" stroke-miterlimit="10"/>
<path d="M325.616 770.906L229.937 866.682C228.499 865.468 227.101 864.204 225.77 862.872L321.81 766.735C323.135 768.067 324.404 769.467 325.616 770.906Z" stroke="#CBCBCB" stroke-width="1.0782" stroke-miterlimit="10"/>
<path d="M329.084 775.411L234.437 870.16C232.886 869.059 231.386 867.907 229.937 866.682L325.616 770.906C326.834 772.357 327.99 773.865 329.084 775.411Z" stroke="#CBCBCB" stroke-width="1.0782" stroke-miterlimit="10"/>
<path d="M334.994 785.465L244.481 876.07C242.699 875.223 240.968 874.292 239.281 873.293L332.22 780.26C333.212 781.948 334.143 783.681 334.994 785.465Z" stroke="#CBCBCB" stroke-width="1.0782" stroke-miterlimit="10"/>
<path d="M332.22 780.26L239.276 873.293C237.612 872.316 236.005 871.266 234.437 870.154L329.084 775.411C330.195 776.981 331.244 778.595 332.22 780.26Z" stroke="#CBCBCB" stroke-width="1.0782" stroke-miterlimit="10"/>
<path d="M337.363 791.077L250.087 878.441C248.175 877.736 246.309 876.94 244.482 876.07L334.995 785.465C335.863 787.294 336.653 789.163 337.363 791.077Z" stroke="#CBCBCB" stroke-width="1.0782" stroke-miterlimit="10"/>
<path d="M298.394 877.972L336.895 839.433C330.003 857.046 315.989 871.074 298.394 877.972Z" stroke="#CBCBCB" stroke-width="1.0782" stroke-miterlimit="10"/>
<path d="M336.895 839.433L298.394 877.972C294.763 879.395 290.99 880.53 287.087 881.314L340.233 828.114C339.444 832.021 338.316 835.797 336.895 839.433Z" stroke="#CBCBCB" stroke-width="1.0782" stroke-miterlimit="10"/>
<path d="M341.457 810.919L269.909 882.539C267.473 882.41 265.076 882.139 262.719 881.76L340.679 803.722C341.057 806.081 341.327 808.481 341.457 810.919Z" stroke="#CBCBCB" stroke-width="1.0782" stroke-miterlimit="10"/>
<path d="M341.564 814.662C341.564 816.102 341.502 817.524 341.418 818.941L277.923 882.5C276.508 882.59 275.087 882.647 273.649 882.647C272.397 882.647 271.15 882.607 269.91 882.54L341.457 810.919C341.525 812.161 341.564 813.403 341.564 814.662Z" stroke="#CBCBCB" stroke-width="1.0782" stroke-miterlimit="10"/>
<path d="M340.228 828.115L287.088 881.315C284.099 881.913 281.042 882.308 277.929 882.506L341.418 818.941C341.221 822.063 340.831 825.123 340.228 828.115Z" stroke="#CBCBCB" stroke-width="1.0782" stroke-miterlimit="10"/>
<path d="M285.062 747.648L206.702 826.088C206.308 823.739 206.026 821.357 205.873 818.935L277.912 746.824C280.331 746.971 282.716 747.253 285.062 747.648Z" stroke="#CBCBCB" stroke-width="1.0782" stroke-miterlimit="10"/>
<path d="M273.649 746.677C275.081 746.677 276.502 746.739 277.918 746.824L205.874 818.935C205.784 817.524 205.727 816.102 205.727 814.662C205.727 813.431 205.761 812.212 205.829 810.998L269.983 746.779C271.201 746.711 272.42 746.677 273.649 746.677Z" stroke="#CBCBCB" stroke-width="1.0782" stroke-miterlimit="10"/>
<path d="M269.988 746.779L205.828 810.998C205.992 807.905 206.375 804.873 206.939 801.904L260.903 747.885C263.869 747.327 266.898 746.943 269.988 746.779Z" stroke="#CBCBCB" stroke-width="1.0782" stroke-miterlimit="10"/>
<path d="M260.903 747.885L206.939 801.904C207.661 798.088 208.699 794.39 210.03 790.828L249.839 750.979C253.397 749.647 257.091 748.614 260.903 747.885Z" stroke="#CBCBCB" stroke-width="1.0782" stroke-miterlimit="10"/>
<path d="M249.839 750.979L210.03 790.828C216.905 772.459 231.482 757.86 249.839 750.979Z" stroke="#CBCBCB" stroke-width="1.0782" stroke-miterlimit="10"/>
<path d="M291.594 749.093L208.141 832.625C207.555 830.485 207.075 828.306 206.703 826.088L285.063 747.648C287.28 748.027 289.456 748.506 291.594 749.093Z" stroke="#CBCBCB" stroke-width="1.0782" stroke-miterlimit="10"/>
<path d="M313.187 759.402L218.444 854.24C217.327 852.682 216.267 851.079 215.28 849.425L308.376 756.235C310.028 757.222 311.63 758.284 313.187 759.402Z" stroke="#CBCBCB" stroke-width="1.0782" stroke-miterlimit="10"/>
<path d="M317.664 762.907L221.94 858.723C220.711 857.283 219.543 855.787 218.438 854.246L313.181 759.407C314.726 760.508 316.22 761.677 317.664 762.907Z" stroke="#CBCBCB" stroke-width="1.0782" stroke-miterlimit="10"/>
<path d="M297.616 751.047L210.092 838.66C209.348 836.689 208.699 834.68 208.141 832.631L291.593 749.093C293.64 749.652 295.654 750.302 297.616 751.047Z" stroke="#CBCBCB" stroke-width="1.0782" stroke-miterlimit="10"/>
<path d="M321.81 766.735L225.77 862.877C224.433 861.551 223.164 860.156 221.946 858.723L317.665 762.907C319.097 764.127 320.484 765.397 321.81 766.735Z" stroke="#CBCBCB" stroke-width="1.0782" stroke-miterlimit="10"/>
<path d="M303.199 753.435L212.483 844.248C211.603 842.431 210.814 840.562 210.092 838.66L297.616 751.047C299.517 751.764 301.383 752.554 303.199 753.435Z" stroke="#CBCBCB" stroke-width="1.0782" stroke-miterlimit="10"/>
<path d="M308.376 756.235L215.28 849.425C214.276 847.743 213.34 846.015 212.483 844.243L303.199 753.435C304.97 754.293 306.695 755.236 308.376 756.235Z" stroke="#CBCBCB" stroke-width="1.0782" stroke-miterlimit="10"/>
<path d="M224.941 804.473L228.358 807.899L223.373 812.89L228.358 817.88L224.941 821.307L219.956 816.311L214.965 821.307L211.547 817.88L216.532 812.89L211.547 807.899L214.965 804.473L219.956 809.469L224.941 804.473Z" fill="#6C5495"/>
<path d="M193.777 804.473L197.2 807.899L192.209 812.89L197.2 817.88L193.777 821.307L188.792 816.311L183.807 821.307L180.383 817.88L185.374 812.89L180.383 807.899L183.807 804.473L188.792 809.469L193.777 804.473Z" fill="#6C5495"/>
<path d="M162.62 804.473L166.037 807.899L161.052 812.89L166.037 817.88L162.62 821.307L157.629 816.311L152.643 821.307L149.226 817.88L154.211 812.89L149.226 807.899L152.643 804.473L157.629 809.469L162.62 804.473Z" fill="#6C5495"/>
<path d="M82.2686 728.771C82.2686 772.809 46.6047 808.514 2.60576 808.514C-41.3932 808.514 -77.057 772.814 -77.057 728.771C-77.057 684.733 -41.3932 649.027 2.60576 649.027C46.6047 649.027 82.2686 684.727 82.2686 728.771ZM-61.1313 728.771C-61.1313 764.008 -32.5957 792.572 2.60576 792.572C37.8072 792.572 66.3428 764.008 66.3428 728.771C66.3428 693.534 37.8072 664.969 2.60576 664.969C-32.5957 664.969 -61.1313 693.534 -61.1313 728.771Z" fill="#6C5495"/>
<path d="M118.067 729.906L118.067 732.147L115.829 732.147L115.829 729.906L118.067 729.906Z" stroke="#CBCBCB" stroke-width="1.0782" stroke-miterlimit="10"/>
<path d="M118.067 712.778L118.067 715.019L115.829 715.019L115.829 712.778L118.067 712.778Z" stroke="#CBCBCB" stroke-width="1.0782" stroke-miterlimit="10"/>
<path d="M118.067 695.656L118.067 697.898L115.829 697.898L115.829 695.656L118.067 695.656Z" stroke="#CBCBCB" stroke-width="1.0782" stroke-miterlimit="10"/>
<path d="M118.067 678.529L118.067 680.77L115.829 680.77L115.829 678.529L118.067 678.529Z" stroke="#CBCBCB" stroke-width="1.0782" stroke-miterlimit="10"/>
<path d="M118.067 661.402L118.067 663.643L115.829 663.643L115.829 661.402L118.067 661.402Z" stroke="#CBCBCB" stroke-width="1.0782" stroke-miterlimit="10"/>
<path d="M118.067 644.28L118.067 646.521L115.829 646.521L115.829 644.28L118.067 644.28Z" stroke="#CBCBCB" stroke-width="1.0782" stroke-miterlimit="10"/>
<path d="M105.593 729.906L105.593 732.147L103.354 732.147L103.354 729.906L105.593 729.906Z" stroke="#CBCBCB" stroke-width="1.0782" stroke-miterlimit="10"/>
<path d="M105.593 712.778L105.593 715.019L103.354 715.019L103.354 712.778L105.593 712.778Z" stroke="#6C5495" stroke-width="1.0782" stroke-miterlimit="10"/>
<path d="M105.593 695.656L105.593 697.898L103.354 697.898L103.354 695.656L105.593 695.656Z" stroke="#CBCBCB" stroke-width="1.0782" stroke-miterlimit="10"/>
<path d="M105.593 678.529L105.593 680.77L103.354 680.77L103.354 678.529L105.593 678.529Z" stroke="#CBCBCB" stroke-width="1.0782" stroke-miterlimit="10"/>
<path d="M105.593 661.402L105.593 663.643L103.354 663.643L103.354 661.402L105.593 661.402Z" stroke="#CBCBCB" stroke-width="1.0782" stroke-miterlimit="10"/>
<path d="M105.593 644.28L105.593 646.521L103.354 646.521L103.354 644.28L105.593 644.28Z" stroke="#CBCBCB" stroke-width="1.0782" stroke-miterlimit="10"/>
<path d="M93.124 729.906L93.124 732.147L90.8852 732.147L90.8852 729.906L93.124 729.906Z" stroke="#CBCBCB" stroke-width="1.0782" stroke-miterlimit="10"/>
<path d="M93.124 712.778L93.124 715.019L90.8852 715.019L90.8852 712.778L93.124 712.778Z" stroke="#CBCBCB" stroke-width="1.0782" stroke-miterlimit="10"/>
<path d="M93.124 695.656L93.124 697.898L90.8852 697.898L90.8852 695.656L93.124 695.656Z" stroke="#CBCBCB" stroke-width="1.0782" stroke-miterlimit="10"/>
<path d="M93.124 678.529L93.124 680.77L90.8852 680.77L90.8852 678.529L93.124 678.529Z" stroke="#6C5495" stroke-width="1.0782" stroke-miterlimit="10"/>
<path d="M93.124 661.402L93.124 663.643L90.8852 663.643L90.8852 661.402L93.124 661.402Z" stroke="#CBCBCB" stroke-width="1.0782" stroke-miterlimit="10"/>
<path d="M93.124 644.28L93.124 646.521L90.8852 646.521L90.8852 644.28L93.124 644.28Z" stroke="#CBCBCB" stroke-width="1.0782" stroke-miterlimit="10"/>
<path d="M80.6494 729.906L80.6494 732.147L78.4106 732.147L78.4106 729.906L80.6494 729.906Z" stroke="#CBCBCB" stroke-width="1.0782" stroke-miterlimit="10"/>
<path d="M80.6494 712.778L80.6494 715.019L78.4106 715.019L78.4106 712.778L80.6494 712.778Z" stroke="#CBCBCB" stroke-width="1.0782" stroke-miterlimit="10"/>
<path d="M80.6494 695.656L80.6494 697.898L78.4106 697.898L78.4106 695.656L80.6494 695.656Z" stroke="#CBCBCB" stroke-width="1.0782" stroke-miterlimit="10"/>
<path d="M80.6494 678.529L80.6494 680.77L78.4106 680.77L78.4106 678.529L80.6494 678.529Z" stroke="#CBCBCB" stroke-width="1.0782" stroke-miterlimit="10"/>
<path d="M80.6494 661.402L80.6494 663.643L78.4106 663.643L78.4106 661.402L80.6494 661.402Z" stroke="#CBCBCB" stroke-width="1.0782" stroke-miterlimit="10"/>
<path d="M80.6494 644.28L80.6494 646.521L78.4106 646.521L78.4106 644.28L80.6494 644.28Z" stroke="#CBCBCB" stroke-width="1.0782" stroke-miterlimit="10"/>
<path d="M68.1807 729.906L68.1807 732.147L65.9418 732.147L65.9418 729.906L68.1807 729.906Z" stroke="#CBCBCB" stroke-width="1.0782" stroke-miterlimit="10"/>
<path d="M68.1807 712.778L68.1807 715.019L65.9418 715.019L65.9418 712.778L68.1807 712.778Z" fill="#6C5495"/>
<path d="M68.1807 695.656L68.1807 697.898L65.9418 697.898L65.9418 695.656L68.1807 695.656Z" fill="#6C5495"/>
<path d="M68.1807 678.529L68.1807 680.77L65.9418 680.77L65.9418 678.529L68.1807 678.529Z" stroke="#CBCBCB" stroke-width="1.0782" stroke-miterlimit="10"/>
<path d="M68.1807 661.402L68.1807 663.643L65.9418 663.643L65.9418 661.402L68.1807 661.402Z" stroke="#6C5495" stroke-width="1.0782" stroke-miterlimit="10"/>
<path d="M68.1807 644.28L68.1807 646.521L65.9418 646.521L65.9418 644.28L68.1807 644.28Z" stroke="#CBCBCB" stroke-width="1.0782" stroke-miterlimit="10"/>
<path d="M55.7119 729.906L55.7119 732.147L53.4731 732.147L53.4731 729.906L55.7119 729.906Z" stroke="#CBCBCB" stroke-width="1.0782" stroke-miterlimit="10"/>
<path d="M55.7119 712.778L55.7119 715.019L53.4731 715.019L53.4731 712.778L55.7119 712.778Z" stroke="#CBCBCB" stroke-width="1.0782" stroke-miterlimit="10"/>
<path d="M55.7119 695.656L55.7119 697.898L53.4731 697.898L53.4731 695.656L55.7119 695.656Z" stroke="#CBCBCB" stroke-width="1.0782" stroke-miterlimit="10"/>
<path d="M55.7119 678.529L55.7119 680.77L53.4731 680.77L53.4731 678.529L55.7119 678.529Z" fill="#6C5495"/>
<path d="M55.7119 661.402L55.7119 663.643L53.4731 663.643L53.4731 661.402L55.7119 661.402Z" stroke="#CBCBCB" stroke-width="1.0782" stroke-miterlimit="10"/>
<path d="M55.7119 644.28L55.7119 646.521L53.4731 646.521L53.4731 644.28L55.7119 644.28Z" stroke="#CBCBCB" stroke-width="1.0782" stroke-miterlimit="10"/>
<path d="M43.2373 729.906L43.2373 732.147L40.9985 732.147L40.9985 729.906L43.2373 729.906Z" stroke="#CBCBCB" stroke-width="1.0782" stroke-miterlimit="10"/>
<path d="M43.2373 712.778L43.2373 715.019L40.9985 715.019L40.9985 712.778L43.2373 712.778Z" stroke="#CBCBCB" stroke-width="1.0782" stroke-miterlimit="10"/>
<path d="M43.2373 695.656L43.2373 697.898L40.9985 697.898L40.9985 695.656L43.2373 695.656Z" stroke="#CBCBCB" stroke-width="1.0782" stroke-miterlimit="10"/>
<path d="M43.2373 678.529L43.2373 680.77L40.9985 680.77L40.9985 678.529L43.2373 678.529Z" stroke="#CBCBCB" stroke-width="1.0782" stroke-miterlimit="10"/>
<path d="M43.2373 661.402L43.2373 663.643L40.9985 663.643L40.9985 661.402L43.2373 661.402Z" fill="#6C5495"/>
<path d="M43.2373 644.28L43.2373 646.521L40.9985 646.521L40.9985 644.28L43.2373 644.28Z" stroke="#CBCBCB" stroke-width="1.0782" stroke-miterlimit="10"/>
<path d="M116.979 795.621L-2.62251 915.338C-6.70547 919.425 -6.70547 926.047 -2.62251 930.128C1.46045 934.215 8.07552 934.215 12.1528 930.128L131.754 810.411C135.837 806.324 135.837 799.702 131.754 795.621C127.671 791.534 121.056 791.534 116.979 795.621Z" stroke="#CBCBCB" stroke-width="2" stroke-miterlimit="10"/>
<path d="M65.7506 802.909L-25.5352 894.287C-28.6481 897.403 -28.6481 902.461 -25.5352 905.577C-22.4222 908.693 -17.3692 908.693 -14.2563 905.577L77.0295 814.199C80.1425 811.083 80.1425 806.025 77.0295 802.909C73.9165 799.793 68.8636 799.793 65.7506 802.909Z" stroke="#CBCBCB" stroke-width="2" stroke-miterlimit="10"/>
<path d="M264.236 719.66L269.819 729.341L258.648 729.341L264.236 719.66Z" fill="#6C5495"/>
<path d="M264.236 703.441L269.819 713.128L258.648 713.128L264.236 703.441Z" fill="#6C5495"/>
<path d="M264.236 687.228L269.819 696.91L258.648 696.91L264.236 687.228Z" fill="#6C5495"/>
<path d="M78.2871 462.381L68.6098 467.97L68.6098 456.793L78.2871 462.381Z" fill="#6C5495"/>
<path d="M94.4834 462.381L84.8118 467.97L84.8118 456.793L94.4834 462.381Z" fill="#6C5495"/>
<path d="M110.686 462.381L101.014 467.97L101.014 456.793L110.686 462.381Z" fill="#6C5495"/>
<path d="M45.9502 503.952L38.2918 511.619" stroke="#D8D9DA" stroke-width="0.7797" stroke-miterlimit="10"/>
<path d="M45.9502 500.221L38.2918 507.887" stroke="#D8D9DA" stroke-width="0.7797" stroke-miterlimit="10"/>
<path d="M45.9502 496.484L38.2918 504.15" stroke="#D8D9DA" stroke-width="0.7797" stroke-miterlimit="10"/>
<path d="M45.9502 492.747L38.2918 500.413" stroke="#D8D9DA" stroke-width="0.7797" stroke-miterlimit="10"/>
<path d="M45.9502 489.015L38.2918 496.681" stroke="#D8D9DA" stroke-width="0.7797" stroke-miterlimit="10"/>
<path d="M45.9502 485.278L38.2918 492.944" stroke="#D8D9DA" stroke-width="0.7797" stroke-miterlimit="10"/>
<path d="M45.9502 481.547L38.2918 489.213" stroke="#D8D9DA" stroke-width="0.7797" stroke-miterlimit="10"/>
<path d="M45.9502 477.81L38.2918 485.476" stroke="#D8D9DA" stroke-width="0.7797" stroke-miterlimit="10"/>
<path d="M45.9502 474.078L38.2918 481.744" stroke="#D8D9DA" stroke-width="0.7797" stroke-miterlimit="10"/>
<path d="M45.9502 470.341L38.2918 478.007" stroke="#D8D9DA" stroke-width="0.7797" stroke-miterlimit="10"/>
<path d="M45.9502 466.61L38.2918 474.27" stroke="#D8D9DA" stroke-width="0.7797" stroke-miterlimit="10"/>
<path d="M45.9502 462.873L38.2918 470.539" stroke="#D8D9DA" stroke-width="0.7797" stroke-miterlimit="10"/>
<path d="M45.9502 459.136L38.2918 466.802" stroke="#D8D9DA" stroke-width="0.7797" stroke-miterlimit="10"/>
<path d="M53.3945 477.81L53.3945 511.619L50.5635 511.619L50.5635 477.81L53.3945 477.81Z" fill="#6C5495"/>
<path d="M53.3945 459.135L53.3945 473.231L50.5635 473.231L50.5635 459.135L53.3945 459.135Z" fill="#6C5495"/>
<path d="M12.7113 492.412L11.0166 494.108L9.32187 492.412L11.0166 490.715L12.7113 492.412Z" fill="#CBCBCB"/>
<path d="M19.3326 499.144L17.7256 500.752L16.1186 499.144L17.7256 497.535L19.3326 499.144Z" fill="#CBCBCB"/>
<path d="M25.9706 505.869L24.4473 507.394L22.924 505.869L24.4473 504.344L25.9706 505.869Z" fill="#CBCBCB"/>
<path d="M32.5986 512.6L31.1631 514.037L29.7275 512.6L31.1631 511.163L32.5986 512.6Z" fill="#CBCBCB"/>
<path d="M39.2453 519.331L37.8975 520.68L36.5496 519.331L37.8975 517.982L39.2453 519.331Z" fill="#CBCBCB"/>
<path d="M45.8705 526.054L44.6064 527.32L43.3424 526.054L44.6064 524.789L45.8705 526.054Z" fill="#CBCBCB"/>
<path d="M52.5162 532.785L51.3398 533.962L50.1635 532.785L51.3398 531.607L52.5162 532.785Z" fill="#CBCBCB"/>
<path d="M59.1336 539.516L58.0449 540.606L56.9563 539.516L58.0449 538.426L59.1336 539.516Z" fill="#CBCBCB"/>
<path d="M65.7851 546.243L64.7803 547.248L63.7754 546.243L64.7802 545.237L65.7851 546.243Z" fill="#CBCBCB"/>
<path d="M72.4103 552.974L71.4932 553.892L70.576 552.974L71.4932 552.056L72.4103 552.974Z" fill="#CBCBCB"/>
<path d="M79.0619 559.701L78.2285 560.535L77.3951 559.701L78.2285 558.866L79.0619 559.701Z" fill="#CBCBCB"/>
<path d="M85.6783 566.427L84.9326 567.174L84.1869 566.427L84.9326 565.681L85.6783 566.427Z" fill="#CBCBCB"/>
<path d="M7.26212 497.864L5.56738 499.56L3.87265 497.864L5.56738 496.167L7.26212 497.864Z" fill="#CBCBCB"/>
<path d="M13.8873 504.592L12.2803 506.2L10.6732 504.592L12.2803 502.983L13.8873 504.592Z" fill="#CBCBCB"/>
<path d="M20.538 511.321L19.0146 512.846L17.4913 511.321L19.0146 509.797L20.538 511.321Z" fill="#CBCBCB"/>
<path d="M27.1602 518.054L25.7246 519.491L24.289 518.054L25.7246 516.617L27.1602 518.054Z" fill="#CBCBCB"/>
<path d="M33.7951 524.783L32.4473 526.132L31.0995 524.783L32.4473 523.434L33.7951 524.783Z" fill="#CBCBCB"/>
<path d="M40.4331 531.508L39.1689 532.773L37.9048 531.508L39.169 530.242L40.4331 531.508Z" fill="#CBCBCB"/>
<path d="M47.066 538.237L45.8896 539.414L44.7133 538.237L45.8897 537.059L47.066 538.237Z" fill="#CBCBCB"/>
<path d="M53.7039 544.966L52.6152 546.056L51.5266 544.966L52.6153 543.876L53.7039 544.966Z" fill="#CBCBCB"/>
<path d="M60.3447 551.695L59.3398 552.701L58.335 551.695L59.3399 550.689L60.3447 551.695Z" fill="#CBCBCB"/>
<path d="M66.9748 558.428L66.0576 559.346L65.1404 558.428L66.0576 557.51L66.9748 558.428Z" fill="#CBCBCB"/>
<path d="M73.6108 565.152L72.7773 565.987L71.9439 565.152L72.7774 564.318L73.6108 565.152Z" fill="#CBCBCB"/>
<path d="M80.2642 571.884L79.5186 572.63L78.7729 571.884L79.5186 571.137L80.2642 571.884Z" fill="#CBCBCB"/>
<path d="M1.81977 503.319L0.125 505.016L-1.56977 503.319L0.125 501.623L1.81977 503.319Z" fill="#CBCBCB"/>
<path d="M8.45367 510.048L6.84668 511.657L5.23966 510.048L6.84665 508.44L8.45367 510.048Z" fill="#CBCBCB"/>
<path d="M15.0926 516.773L13.5693 518.298L12.0461 516.773L13.5693 515.248L15.0926 516.773Z" fill="#CBCBCB"/>
<path d="M21.7275 523.502L20.292 524.939L18.8564 523.502L20.292 522.065L21.7275 523.502Z" fill="#CBCBCB"/>
<path d="M28.3586 530.235L27.0107 531.585L25.6629 530.235L27.0107 528.886L28.3586 530.235Z" fill="#CBCBCB"/>
<path d="M34.9975 536.96L33.7334 538.226L32.4693 536.96L33.7334 535.695L34.9975 536.96Z" fill="#CBCBCB"/>
<path d="M41.6324 543.689L40.4561 544.867L39.2797 543.689L40.4561 542.512L41.6324 543.689Z" fill="#CBCBCB"/>
<path d="M48.2713 550.423L47.1826 551.512L46.094 550.423L47.1826 549.333L48.2713 550.423Z" fill="#CBCBCB"/>
<path d="M54.8965 557.146L53.8916 558.152L52.8867 557.146L53.8916 556.141L54.8965 557.146Z" fill="#CBCBCB"/>
<path d="M61.546 563.877L60.6289 564.795L59.7118 563.877L60.6289 562.959L61.546 563.877Z" fill="#CBCBCB"/>
<path d="M68.1674 570.605L67.334 571.439L66.5005 570.605L67.334 569.77L68.1674 570.605Z" fill="#CBCBCB"/>
<path d="M74.817 577.335L74.0713 578.082L73.3256 577.335L74.0713 576.589L74.817 577.335Z" fill="#CBCBCB"/>
<path d="M2.98596 515.499L1.37891 517.107L-0.228122 515.499L1.37893 513.89L2.98596 515.499Z" fill="#CBCBCB"/>
<path d="M9.63463 522.225L8.11133 523.749L6.58803 522.225L8.11133 520.7L9.63463 522.225Z" fill="#CBCBCB"/>
<path d="M16.2598 528.953L14.8242 530.39L13.3887 528.953L14.8242 527.516L16.2598 528.953Z" fill="#CBCBCB"/>
<path d="M22.9035 535.682L21.5557 537.032L20.2079 535.682L21.5557 534.333L22.9035 535.682Z" fill="#CBCBCB"/>
<path d="M29.5336 542.411L28.2695 543.676L27.0055 542.411L28.2696 541.145L29.5336 542.411Z" fill="#CBCBCB"/>
<path d="M36.1763 549.144L35 550.322L33.8237 549.144L35 547.967L36.1763 549.144Z" fill="#CBCBCB"/>
<path d="M42.7976 555.872L41.709 556.962L40.6203 555.872L41.709 554.783L42.7976 555.872Z" fill="#CBCBCB"/>
<path d="M49.4502 562.599L48.4453 563.604L47.4405 562.599L48.4453 561.593L49.4502 562.599Z" fill="#CBCBCB"/>
<path d="M56.0832 569.327L55.166 570.245L54.2488 569.327L55.166 568.409L56.0832 569.327Z" fill="#CBCBCB"/>
<path d="M62.7211 576.052L61.8877 576.886L61.0542 576.052L61.8877 575.218L62.7211 576.052Z" fill="#CBCBCB"/>
<path d="M69.3746 582.787L68.6289 583.533L67.8832 582.787L68.6289 582.04L69.3746 582.787Z" fill="#CBCBCB"/>
<path d="M4.18639 527.676L2.66309 529.201L1.13978 527.676L2.66309 526.151L4.18639 527.676Z" fill="#CBCBCB"/>
<path d="M10.8106 534.405L9.375 535.842L7.93943 534.405L9.375 532.968L10.8106 534.405Z" fill="#CBCBCB"/>
<path d="M17.4591 541.138L16.1113 542.487L14.7635 541.138L16.1113 539.789L17.4591 541.138Z" fill="#CBCBCB"/>
<path d="M24.0844 547.862L22.8203 549.128L21.5562 547.862L22.8203 546.597L24.0844 547.862Z" fill="#CBCBCB"/>
<path d="M30.734 554.592L29.5576 555.77L28.3812 554.592L29.5576 553.415L30.734 554.592Z" fill="#CBCBCB"/>
<path d="M37.3494 561.324L36.2607 562.414L35.1721 561.324L36.2607 560.235L37.3494 561.324Z" fill="#CBCBCB"/>
<path d="M44.001 568.05L42.9961 569.056L41.9912 568.05L42.9961 567.044L44.001 568.05Z" fill="#CBCBCB"/>
<path d="M50.6183 574.778L49.7012 575.696L48.784 574.778L49.7012 573.86L50.6183 574.778Z" fill="#CBCBCB"/>
<path d="M57.2777 581.508L56.4443 582.342L55.6109 581.508L56.4443 580.674L57.2777 581.508Z" fill="#CBCBCB"/>
<path d="M63.8961 588.236L63.1504 588.983L62.4047 588.236L63.1504 587.49L63.8961 588.236Z" fill="#CBCBCB"/>
<path d="M5.36527 539.861L3.92969 541.298L2.49413 539.861L3.92971 538.424L5.36527 539.861Z" fill="#CBCBCB"/>
<path d="M12.0001 546.59L10.6523 547.939L9.30455 546.59L10.6523 545.241L12.0001 546.59Z" fill="#CBCBCB"/>
<path d="M18.6372 553.315L17.373 554.58L16.109 553.315L17.3731 552.049L18.6372 553.315Z" fill="#CBCBCB"/>
<path d="M25.2828 560.044L24.1064 561.222L22.9301 560.044L24.1065 558.867L25.2828 560.044Z" fill="#CBCBCB"/>
<path d="M31.9041 566.773L30.8154 567.862L29.7268 566.773L30.8154 565.683L31.9041 566.773Z" fill="#CBCBCB"/>
<path d="M38.5596 573.502L37.5547 574.508L36.5498 573.502L37.5547 572.496L38.5596 573.502Z" fill="#CBCBCB"/>
<path d="M45.1769 580.234L44.2598 581.153L43.3426 580.234L44.2598 579.316L45.1769 580.234Z" fill="#CBCBCB"/>
<path d="M51.8286 586.96L50.9951 587.794L50.1617 586.96L50.9951 586.126L51.8286 586.96Z" fill="#CBCBCB"/>
<path d="M58.4449 593.688L57.6992 594.435L56.9535 593.688L57.6992 592.942L58.4449 593.688Z" fill="#CBCBCB"/>
<path d="M6.57244 552.042L5.22461 553.391L3.87678 552.042L5.22461 550.693L6.57244 552.042Z" fill="#CBCBCB"/>
<path d="M13.1889 558.767L11.9248 560.032L10.6607 558.767L11.9248 557.501L13.1889 558.767Z" fill="#CBCBCB"/>
<path d="M19.8326 565.496L18.6562 566.673L17.4799 565.496L18.6562 564.318L19.8326 565.496Z" fill="#CBCBCB"/>
<path d="M26.4617 572.229L25.373 573.318L24.2844 572.229L25.373 571.139L26.4617 572.229Z" fill="#CBCBCB"/>
<path d="M33.1113 578.954L32.1064 579.96L31.1016 578.954L32.1064 577.948L33.1113 578.954Z" fill="#CBCBCB"/>
<path d="M39.7306 585.683L38.8135 586.601L37.8963 585.683L38.8135 584.764L39.7306 585.683Z" fill="#CBCBCB"/>
<path d="M46.3784 592.412L45.5449 593.246L44.7114 592.412L45.5449 591.578L46.3784 592.412Z" fill="#CBCBCB"/>
<path d="M52.9967 599.14L52.251 599.887L51.5053 599.14L52.251 598.394L52.9967 599.14Z" fill="#CBCBCB"/>
<path d="M1.12908 557.49L-0.21875 558.839L-1.56658 557.49L-0.21875 556.141L1.12908 557.49Z" fill="#CBCBCB"/>
<path d="M7.76018 564.219L6.49609 565.484L5.23203 564.219L6.49612 562.953L7.76018 564.219Z" fill="#CBCBCB"/>
<path d="M14.4029 570.952L13.2266 572.13L12.0502 570.952L13.2266 569.775L14.4029 570.952Z" fill="#CBCBCB"/>
<path d="M21.0252 577.681L19.9365 578.771L18.8479 577.681L19.9365 576.591L21.0252 577.681Z" fill="#CBCBCB"/>
<path d="M27.6631 584.406L26.6582 585.412L25.6533 584.406L26.6582 583.4L27.6631 584.406Z" fill="#CBCBCB"/>
<path d="M34.2981 591.135L33.3809 592.053L32.4637 591.135L33.3809 590.217L34.2981 591.135Z" fill="#CBCBCB"/>
<path d="M40.9379 597.86L40.1045 598.694L39.271 597.86L40.1045 597.026L40.9379 597.86Z" fill="#CBCBCB"/>
<path d="M47.5914 604.593L46.8457 605.34L46.1 604.593L46.8457 603.847L47.5914 604.593Z" fill="#CBCBCB"/>
<path d="M2.32368 569.671L1.05957 570.936L-0.204538 569.671L1.05957 568.405L2.32368 569.671Z" fill="#CBCBCB"/>
<path d="M8.95861 576.4L7.78223 577.577L6.60585 576.4L7.78223 575.222L8.95861 576.4Z" fill="#CBCBCB"/>
<path d="M15.5896 583.133L14.501 584.222L13.4123 583.133L14.501 582.043L15.5896 583.133Z" fill="#CBCBCB"/>
<path d="M22.2285 589.858L21.2236 590.864L20.2188 589.858L21.2236 588.852L22.2285 589.858Z" fill="#CBCBCB"/>
<path d="M28.8644 596.587L27.9473 597.505L27.0301 596.587L27.9473 595.669L28.8644 596.587Z" fill="#CBCBCB"/>
<path d="M35.5073 603.316L34.6738 604.15L33.8404 603.316L34.6738 602.481L35.5073 603.316Z" fill="#CBCBCB"/>
<path d="M42.1412 610.045L41.3955 610.791L40.6498 610.045L41.3955 609.298L42.1412 610.045Z" fill="#CBCBCB"/>
<path d="M3.49962 581.852L2.32324 583.029L1.14686 581.852L2.32324 580.674L3.49962 581.852Z" fill="#CBCBCB"/>
<path d="M10.1199 588.581L9.03125 589.671L7.94262 588.581L9.03125 587.491L10.1199 588.581Z" fill="#CBCBCB"/>
<path d="M16.7705 595.313L15.7656 596.319L14.7607 595.313L15.7656 594.308L16.7705 595.313Z" fill="#CBCBCB"/>
<path d="M23.4035 602.042L22.4863 602.961L21.5692 602.042L22.4863 601.124L23.4035 602.042Z" fill="#CBCBCB"/>
<path d="M30.0434 608.767L29.21 609.602L28.3765 608.767L29.21 607.933L30.0434 608.767Z" fill="#CBCBCB"/>
<path d="M36.6793 615.496L35.9336 616.243L35.1879 615.496L35.9336 614.75L36.6793 615.496Z" fill="#CBCBCB"/>
<path d="M4.67555 594.037L3.58691 595.127L2.49828 594.037L3.58691 592.947L4.67555 594.037Z" fill="#CBCBCB"/>
<path d="M11.3272 600.761L10.3223 601.767L9.31737 600.761L10.3223 599.756L11.3272 600.761Z" fill="#CBCBCB"/>
<path d="M17.9485 607.491L17.0312 608.409L16.114 607.491L17.0312 606.573L17.9485 607.491Z" fill="#CBCBCB"/>
<path d="M24.5961 614.219L23.7627 615.054L22.9293 614.219L23.7627 613.385L24.5961 614.219Z" fill="#CBCBCB"/>
<path d="M31.2125 620.949L30.4668 621.695L29.7211 620.949L30.4668 620.203L31.2125 620.949Z" fill="#CBCBCB"/>
<path d="M5.86523 606.214L4.86035 607.22L3.85547 606.214L4.86035 605.208L5.86523 606.214Z" fill="#CBCBCB"/>
<path d="M12.4982 612.943L11.5811 613.861L10.6639 612.943L11.5811 612.025L12.4982 612.943Z" fill="#CBCBCB"/>
<path d="M19.1499 619.667L18.3164 620.502L17.483 619.667L18.3164 618.833L19.1499 619.667Z" fill="#CBCBCB"/>
<path d="M25.7643 626.401L25.0186 627.148L24.2729 626.401L25.0186 625.655L25.7643 626.401Z" fill="#CBCBCB"/>
<path d="M80.6501 779.775C78.9808 779.775 77.6274 781.13 77.6274 782.801C77.6274 784.472 78.9808 785.826 80.6501 785.826C82.3194 785.826 83.6728 784.472 83.6728 782.801C83.6785 781.13 82.325 779.775 80.6501 779.775Z" stroke="#CBCBCB" stroke-miterlimit="10"/>
</g>
</g>
<defs>
<clipPath id="clip0_1_329">
<rect width="449" height="362" fill="white" transform="matrix(4.37114e-08 1 1 -4.37114e-08 28 0)"/>
</clipPath>
<clipPath id="clip1_1_329">
<rect width="455" height="366" fill="white" transform="matrix(-1.19249e-08 -1 -1 1.19249e-08 366 844)"/>
</clipPath>
</defs>
</svg>
