<svg width="27" height="27" viewBox="0 0 27 27" fill="none" xmlns="http://www.w3.org/2000/svg">
<path d="M18.844 4.005V2.25C18.844 1.78875 18.4615 1.40625 18.0002 1.40625C17.539 1.40625 17.1565 1.78875 17.1565 2.25V3.9375H9.84401V2.25C9.84401 1.78875 9.46151 1.40625 9.00026 1.40625C8.53901 1.40625 8.15651 1.78875 8.15651 2.25V4.005C5.11901 4.28625 3.64526 6.0975 3.42026 8.78625C3.39776 9.1125 3.66776 9.3825 3.98276 9.3825H23.0177C23.344 9.3825 23.614 9.10125 23.5802 8.78625C23.3552 6.0975 21.8815 4.28625 18.844 4.005Z" fill="#6C5495"/>
<path d="M22.5 11.0701H4.5C3.88125 11.0701 3.375 11.5763 3.375 12.1951V19.1251C3.375 22.5001 5.0625 24.7501 9 24.7501H18C21.9375 24.7501 23.625 22.5001 23.625 19.1251V12.1951C23.625 11.5763 23.1187 11.0701 22.5 11.0701ZM10.3612 20.4863C10.305 20.5313 10.2488 20.5876 10.1925 20.6213C10.125 20.6663 10.0575 20.7001 9.99 20.7226C9.9225 20.7563 9.855 20.7788 9.7875 20.7901C9.70875 20.8013 9.64125 20.8126 9.5625 20.8126C9.41625 20.8126 9.27 20.7788 9.135 20.7226C8.98875 20.6663 8.87625 20.5876 8.76375 20.4863C8.56125 20.2726 8.4375 19.9801 8.4375 19.6876C8.4375 19.3951 8.56125 19.1026 8.76375 18.8888C8.87625 18.7876 8.98875 18.7088 9.135 18.6526C9.3375 18.5626 9.5625 18.5401 9.7875 18.5851C9.855 18.5963 9.9225 18.6188 9.99 18.6526C10.0575 18.6751 10.125 18.7088 10.1925 18.7538L10.3612 18.8888C10.5638 19.1026 10.6875 19.3951 10.6875 19.6876C10.6875 19.9801 10.5638 20.2726 10.3612 20.4863ZM10.3612 16.5488C10.1475 16.7513 9.855 16.8751 9.5625 16.8751C9.27 16.8751 8.9775 16.7513 8.76375 16.5488C8.56125 16.3351 8.4375 16.0426 8.4375 15.7501C8.4375 15.4576 8.56125 15.1651 8.76375 14.9513C9.07875 14.6363 9.57375 14.5351 9.99 14.7151C10.1363 14.7713 10.26 14.8501 10.3612 14.9513C10.5638 15.1651 10.6875 15.4576 10.6875 15.7501C10.6875 16.0426 10.5638 16.3351 10.3612 16.5488ZM14.2987 20.4863C14.085 20.6888 13.7925 20.8126 13.5 20.8126C13.2075 20.8126 12.915 20.6888 12.7013 20.4863C12.4987 20.2726 12.375 19.9801 12.375 19.6876C12.375 19.3951 12.4987 19.1026 12.7013 18.8888C13.1175 18.4726 13.8825 18.4726 14.2987 18.8888C14.5013 19.1026 14.625 19.3951 14.625 19.6876C14.625 19.9801 14.5013 20.2726 14.2987 20.4863ZM14.2987 16.5488C14.2425 16.5938 14.1863 16.6388 14.13 16.6838C14.0625 16.7288 13.995 16.7626 13.9275 16.7851C13.86 16.8188 13.7925 16.8413 13.725 16.8526C13.6462 16.8638 13.5787 16.8751 13.5 16.8751C13.2075 16.8751 12.915 16.7513 12.7013 16.5488C12.4987 16.3351 12.375 16.0426 12.375 15.7501C12.375 15.4576 12.4987 15.1651 12.7013 14.9513C12.8025 14.8501 12.9262 14.7713 13.0725 14.7151C13.4887 14.5351 13.9838 14.6363 14.2987 14.9513C14.5013 15.1651 14.625 15.4576 14.625 15.7501C14.625 16.0426 14.5013 16.3351 14.2987 16.5488ZM18.2362 20.4863C18.0225 20.6888 17.73 20.8126 17.4375 20.8126C17.145 20.8126 16.8525 20.6888 16.6388 20.4863C16.4362 20.2726 16.3125 19.9801 16.3125 19.6876C16.3125 19.3951 16.4362 19.1026 16.6388 18.8888C17.055 18.4726 17.82 18.4726 18.2362 18.8888C18.4387 19.1026 18.5625 19.3951 18.5625 19.6876C18.5625 19.9801 18.4387 20.2726 18.2362 20.4863ZM18.2362 16.5488C18.18 16.5938 18.1237 16.6388 18.0675 16.6838C18 16.7288 17.9325 16.7626 17.865 16.7851C17.7975 16.8188 17.73 16.8413 17.6625 16.8526C17.5837 16.8638 17.505 16.8751 17.4375 16.8751C17.145 16.8751 16.8525 16.7513 16.6388 16.5488C16.4362 16.3351 16.3125 16.0426 16.3125 15.7501C16.3125 15.4576 16.4362 15.1651 16.6388 14.9513C16.7513 14.8501 16.8637 14.7713 17.01 14.7151C17.2125 14.6251 17.4375 14.6026 17.6625 14.6476C17.73 14.6588 17.7975 14.6813 17.865 14.7151C17.9325 14.7376 18 14.7713 18.0675 14.8163C18.1237 14.8613 18.18 14.9063 18.2362 14.9513C18.4387 15.1651 18.5625 15.4576 18.5625 15.7501C18.5625 16.0426 18.4387 16.3351 18.2362 16.5488Z" fill="#6C5495"/>
</svg>
