<svg width="19" height="19" viewBox="0 0 19 19" fill="none" xmlns="http://www.w3.org/2000/svg">
<g clip-path="url(#clip0_1_1229)">
<path d="M8.11463 8.90625H0.59375C0.265999 8.90625 0 8.64025 0 8.3125C0 7.98475 0.265999 7.71875 0.59375 7.71875H8.11463C8.44238 7.71875 8.70838 7.98475 8.70838 8.3125C8.70838 8.64025 8.44238 8.90625 8.11463 8.90625Z" fill="white"/>
<path d="M5.14585 11.875C4.99379 11.875 4.84187 11.8172 4.7262 11.7009C4.49426 11.4688 4.49426 11.0928 4.7262 10.8609L7.27544 8.31178L4.7262 5.7634C4.49426 5.53133 4.49426 5.1553 4.7262 4.92337C4.95813 4.69144 5.33415 4.69144 5.56623 4.92337L8.53498 7.89212C8.76691 8.12405 8.76691 8.50008 8.53498 8.73215L5.56623 11.7009C5.44983 11.8172 5.29777 11.875 5.14585 11.875Z" fill="white"/>
<path d="M12.6667 19C11.7935 19 11.0835 18.2898 11.0835 17.4166V3.16662C11.0835 2.48981 11.5142 1.88576 12.1553 1.66325L16.9117 0.0775522C17.9757 -0.248605 19.0001 0.540695 19.0001 1.58338V15.8334C19.0001 16.5095 18.5694 17.1126 17.929 17.3359L13.171 18.9224C12.9977 18.9762 12.8371 19 12.6667 19ZM17.4167 1.1875C17.3653 1.1875 17.3218 1.19388 17.2751 1.20808L12.5386 2.78741C12.3833 2.84133 12.271 2.99803 12.271 3.16662V17.4166C12.271 17.6867 12.5638 17.8687 12.8085 17.7919L17.545 16.2126C17.6994 16.1587 17.8126 16.002 17.8126 15.8334V1.58338C17.8126 1.36565 17.6353 1.1875 17.4167 1.1875Z" fill="white"/>
<path d="M6.92725 3.95838C6.59949 3.95838 6.3335 3.69238 6.3335 3.36463V2.17713C6.3335 0.976151 7.3095 0 8.51048 0H17.4167C17.7445 0 18.0105 0.265999 18.0105 0.59375C18.0105 0.921501 17.7445 1.1875 17.4167 1.1875H8.51048C7.965 1.1875 7.521 1.63165 7.521 2.17713V3.36463C7.521 3.69238 7.255 3.95838 6.92725 3.95838Z" fill="white"/>
<path d="M11.6772 16.625H8.51048C7.3095 16.625 6.3335 15.6488 6.3335 14.4479V13.2604C6.3335 12.9326 6.59949 12.6666 6.92725 12.6666C7.255 12.6666 7.521 12.9326 7.521 13.2604V14.4479C7.521 14.9933 7.965 15.4375 8.51048 15.4375H11.6772C12.005 15.4375 12.271 15.7035 12.271 16.0312C12.271 16.359 12.005 16.625 11.6772 16.625Z" fill="white"/>
</g>
<defs>
<clipPath id="clip0_1_1229">
<rect width="19" height="19" fill="white"/>
</clipPath>
</defs>
</svg>
